<svg width="204" height="173" viewBox="0 0 204 173" fill="none" xmlns="http://www.w3.org/2000/svg">
<path d="M26.5123 129.259C24.1887 130.67 20.247 131.417 16.6787 131.417C6.88656 131.417 2.90332 125.732 2.90332 116.604C2.90332 108.223 7.75789 101.999 17.5085 101.999C20.7864 101.999 24.2717 102.829 26.4293 104.239V111.915L22.1141 111.542L21.4917 107.683C21.4088 107.31 21.2428 107.102 20.8694 106.978C19.998 106.687 18.6703 106.521 17.384 106.521C12.405 106.521 9.21011 109.882 9.21011 116.604C9.21011 123.575 12.239 126.936 17.0936 126.936C18.3798 126.936 19.998 126.728 21.0353 126.438C21.4917 126.313 21.6162 126.189 21.7407 125.608L22.3216 121.956H26.5123V129.259ZM43.2336 120.629C43.2336 115.982 41.8228 114.322 39.2503 114.322C36.6363 114.322 34.9352 115.94 34.9352 120.67C34.9352 125.442 36.4704 127.309 39.0844 127.309C41.6569 127.309 43.2336 125.525 43.2336 120.629ZM28.7114 120.836C28.7114 114.322 32.1137 110.048 39.3333 110.048C46.5944 110.048 49.4159 114.363 49.4159 120.38C49.4159 127.06 46.055 131.375 38.7939 131.375C31.6158 131.417 28.7114 127.019 28.7114 120.836ZM69.415 129.508C67.5894 130.628 64.8094 131.417 61.9465 131.417C54.8513 131.417 51.6564 126.977 51.6564 121.002C51.6564 113.658 56.1376 110.09 62.4444 110.09C65.5148 110.09 68.2118 110.961 69.4565 111.749V117.932L65.2243 117.724L64.7679 115.11C64.7264 114.82 64.6435 114.612 64.3115 114.488C63.8551 114.322 63.1082 114.197 62.3199 114.197C59.9548 114.197 57.9632 115.816 57.9632 120.421C57.9632 125.525 60.2453 126.977 63.0253 126.977C64.9754 126.977 66.7595 126.355 67.9213 125.857L69.415 129.508ZM86.5512 130.96L81.5722 120.919L79.4561 123.243V126.77C79.4561 127.392 79.4976 127.475 80.0785 127.558L82.4435 127.848V130.96H70.9087V127.848L72.8589 127.558C73.3983 127.475 73.4812 127.35 73.4812 126.77V106.024C73.4812 105.609 73.3568 105.318 72.9833 105.194L70.8258 104.447L71.2407 101.252H79.4146V118.056L86.5927 110.463H92.0282V113.575L89.9951 113.949C89.4972 114.031 89.3727 114.156 88.9993 114.529L86.2193 117.475L91.2398 126.853C91.5303 127.392 91.7792 127.475 92.4016 127.558L94.1443 127.848V130.919L86.5512 130.96ZM95.9699 130.96V127.765L97.7541 127.516C98.2935 127.433 98.3765 127.309 98.3765 126.728V115.235C98.3765 114.82 98.252 114.529 97.8786 114.405L95.7625 113.658L96.1774 110.463H103.107L103.563 113.617H103.812C105.098 111.625 106.841 110.09 109.372 110.09C110.285 110.09 112.069 110.256 112.774 110.463V117.6L108.044 117.434L107.671 115.359C107.588 114.986 107.463 114.944 107.173 114.944C106.135 114.944 104.932 115.816 104.351 116.314V126.728C104.351 127.35 104.393 127.475 104.974 127.516L108.874 127.848V131.002L95.9699 130.96ZM129.039 120.629C129.039 115.982 127.628 114.322 125.056 114.322C122.442 114.322 120.741 115.94 120.741 120.67C120.741 125.442 122.276 127.309 124.89 127.309C127.462 127.309 129.039 125.525 129.039 120.629ZM114.517 120.836C114.517 114.322 117.919 110.048 125.139 110.048C132.4 110.048 135.221 114.363 135.221 120.38C135.221 127.06 131.861 131.375 124.599 131.375C117.421 131.417 114.517 127.019 114.517 120.836ZM148.748 122.496L146.092 122.703C143.769 122.869 142.939 123.45 142.939 125.027C142.939 126.604 143.893 127.184 145.179 127.184C146.507 127.184 147.835 126.438 148.748 125.774V122.496ZM149.827 130.96L149.453 128.844L149.246 128.803C147.752 130.255 145.802 131.417 142.648 131.417C137.711 131.417 136.923 128.056 136.923 125.608C136.923 121.666 139.371 119.882 144.267 119.55L148.789 119.218V117.06C148.789 115.193 148.582 113.949 146.175 113.949C144.308 113.949 143.312 114.239 143.312 116.563L137.752 116.106C137.752 110.795 142.565 110.048 146.217 110.048C152.192 110.048 154.598 111.666 154.598 117.143V126.687C154.598 127.309 154.64 127.392 155.221 127.475L157.129 127.807V130.919L149.827 130.96ZM175.676 129.508C173.85 130.628 171.071 131.417 168.208 131.417C161.112 131.417 157.918 126.977 157.918 121.002C157.918 113.658 162.399 110.09 168.705 110.09C171.776 110.09 174.473 110.961 175.718 111.749V117.932L171.485 117.724L171.029 115.11C170.988 114.82 170.905 114.612 170.573 114.488C170.116 114.322 169.369 114.197 168.581 114.197C166.216 114.197 164.224 115.816 164.224 120.421C164.224 125.525 166.506 126.977 169.286 126.977C171.236 126.977 173.021 126.355 174.182 125.857L175.676 129.508Z" fill="#7DBC42"/>
<path d="M192.937 130.96V118.139C192.937 116.978 192.812 114.778 190.862 114.778C189.41 114.778 187.75 115.525 186.755 116.231V126.77C186.755 127.392 186.796 127.475 187.377 127.558L189.286 127.848V130.96H178.456V127.848L180.24 127.558C180.78 127.475 180.863 127.351 180.863 126.77V106.024C180.863 105.609 180.738 105.318 180.365 105.194L178.207 104.447L178.622 101.252H186.713V112.372L186.921 112.413C188.705 110.961 190.738 110.048 193.227 110.048C197.377 110.048 198.912 112.33 198.912 116.397V126.728C198.912 127.351 198.953 127.434 199.534 127.516L201.484 127.807V130.919H192.937" fill="#7DBC42"/>
<path d="M54.9136 141.502H61.0597V163.606H72.3932V169.244H54.9136V141.502ZM88.5194 149.622L85.1363 158.249H91.9026L88.5194 149.622ZM86.1513 141.502H91.226L103.293 169.301H96.4135L94.0452 163.437H83.2192L80.9074 169.301H74.1411L86.1513 141.502ZM111.92 164.113H117.389C117.84 164.113 118.348 164.057 118.799 163.944C119.25 163.831 119.701 163.662 120.095 163.38C120.49 163.098 120.828 162.76 121.054 162.365C121.336 161.914 121.449 161.35 121.449 160.843C121.449 160.166 121.279 159.659 120.941 159.264C120.603 158.869 120.208 158.531 119.701 158.362C119.193 158.136 118.629 158.024 118.066 157.911C117.558 157.854 116.994 157.798 116.43 157.798H111.807L111.92 164.113ZM111.92 152.61H116.374C116.825 152.61 117.333 152.554 117.784 152.441C118.235 152.329 118.629 152.159 119.024 151.934C119.362 151.708 119.701 151.37 119.926 150.975C120.152 150.581 120.264 150.13 120.264 149.566C120.264 149.002 120.152 148.494 119.87 148.156C119.644 147.761 119.306 147.479 118.911 147.254C118.516 147.028 118.065 146.859 117.558 146.803C117.107 146.69 116.599 146.69 116.092 146.69H111.919L111.92 152.61ZM105.83 141.502H116.205C117.389 141.502 118.629 141.559 119.814 141.784C120.941 141.954 122.069 142.292 123.084 142.799C124.042 143.307 124.832 144.04 125.452 144.942C126.072 145.844 126.354 147.085 126.354 148.607C126.354 150.186 125.903 151.483 125.057 152.498C124.155 153.513 123.028 154.246 121.561 154.697V154.753C122.464 154.866 123.309 155.148 124.042 155.543C124.775 155.937 125.452 156.388 125.96 157.009C126.467 157.572 126.918 158.305 127.2 159.095C127.482 159.884 127.651 160.73 127.651 161.632C127.651 163.098 127.313 164.339 126.693 165.297C126.072 166.256 125.227 167.045 124.268 167.665C123.253 168.286 122.182 168.68 120.941 168.962C119.701 169.244 118.46 169.357 117.22 169.357H105.83V141.502ZM145.187 148.325C144.68 147.705 143.947 147.197 143.157 146.916C142.368 146.634 141.578 146.464 140.733 146.464C140.282 146.464 139.83 146.521 139.379 146.634C138.928 146.746 138.477 146.915 138.026 147.141C137.631 147.367 137.293 147.649 137.011 148.043C136.729 148.438 136.616 148.833 136.616 149.396C136.616 150.242 136.955 150.862 137.575 151.314C138.195 151.765 138.985 152.159 139.943 152.441C140.902 152.78 141.917 153.062 143.044 153.4C144.116 153.738 145.187 154.133 146.146 154.753C147.104 155.317 147.894 156.106 148.514 157.065C149.134 158.023 149.472 159.32 149.472 160.956C149.472 162.478 149.19 163.831 148.627 165.015C148.063 166.143 147.273 167.102 146.315 167.891C145.3 168.68 144.116 169.244 142.875 169.583C141.522 169.977 140.169 170.146 138.759 170.146C137.068 170.146 135.376 169.864 133.741 169.301C132.218 168.737 130.752 167.891 129.399 166.651L133.741 161.858C134.361 162.703 135.15 163.324 136.109 163.775C137.068 164.226 138.026 164.451 139.097 164.451C139.605 164.451 140.112 164.395 140.62 164.282C141.127 164.17 141.578 164 141.973 163.775C142.368 163.549 142.706 163.267 142.932 162.873C143.157 162.478 143.326 162.083 143.326 161.576C143.326 160.73 142.988 160.053 142.368 159.602C141.748 159.095 140.902 158.7 139.943 158.362C138.928 158.023 137.857 157.685 136.786 157.347C135.714 157.009 134.643 156.557 133.628 155.994C132.669 155.43 131.824 154.64 131.203 153.738C130.583 152.78 130.245 151.539 130.245 150.017C130.245 148.551 130.527 147.197 131.147 146.07C131.711 144.942 132.5 143.983 133.515 143.25C134.53 142.461 135.658 141.897 136.898 141.559C138.195 141.164 139.492 140.995 140.845 140.995C142.424 140.995 143.947 141.221 145.413 141.672C146.879 142.123 148.176 142.856 149.36 143.927L145.187 148.325Z" fill="#7DBC42"/>
<path d="M111.292 28.6432C108.068 29.4296 104.766 29.7442 101.463 29.7442C98.0814 29.7442 94.7786 29.351 91.6331 28.6432C94.2281 24.4754 97.6095 20.7795 101.463 17.7126C105.316 20.7795 108.697 24.4754 111.292 28.6432ZM140.939 4.58016C136.85 3.47923 132.682 2.92875 128.514 3.00739C118.92 3.00739 109.484 5.83836 101.463 11.1857C93.4418 5.83836 84.0839 2.92875 74.4115 3.00739C70.0864 3.00739 65.9186 3.55787 61.9867 4.58016C60.3354 4.97336 58.684 5.5238 57.1112 6.1529C57.0326 6.23153 56.9539 6.31017 57.0326 6.3888C57.7403 7.88291 58.5267 9.37701 59.3131 10.7925C59.3917 10.8711 59.4703 10.8711 59.549 10.8711C64.3459 9.1411 69.3787 8.2761 74.4115 8.2761C82.6684 8.2761 90.3749 10.5566 96.9804 14.5671C92.8126 18.1058 89.1953 22.3522 86.443 27.0705C84.9489 29.5082 83.7693 32.1033 82.747 34.7769C80.7025 40.2029 79.6802 46.0221 79.6802 51.7626C79.6802 65.6029 85.4994 78.1062 94.7786 86.9923C95.4863 87.7 96.2727 88.4077 97.0591 89.0368C97.6882 89.5873 98.3173 90.0591 98.9464 90.531C99.7328 91.1601 100.598 91.7892 101.463 92.3396C101.541 92.4183 101.62 92.4183 101.699 92.3396C102.564 91.7892 103.35 91.1601 104.215 90.531C104.844 90.0591 105.473 89.5873 106.102 89.0368C106.889 88.4077 107.675 87.7 108.383 86.9923C117.662 78.1062 123.403 65.6029 123.403 51.7626C123.403 44.8425 121.909 38.0011 119.078 31.7101C118.763 31.081 118.448 30.3733 118.134 29.7442C117.662 28.8005 117.112 27.8569 116.561 26.9919C113.73 22.2736 110.192 18.0272 106.024 14.4885C112.865 10.3993 120.65 8.19748 128.593 8.19748C133.626 8.19748 138.737 9.06248 143.455 10.7925C143.534 10.7925 143.612 10.7925 143.691 10.7139C144.556 9.2984 145.264 7.80429 145.972 6.38882C146.05 6.31019 145.972 6.15292 145.893 6.15292C144.242 5.52382 142.59 4.97335 140.939 4.58016Z" fill="#7DBC42"/>
<path d="M117.976 51.8419C117.976 63.4016 113.493 73.939 106.101 81.7241C104.764 77.4777 104.135 73.074 104.135 68.6703C104.135 57.1106 108.618 46.5731 116.01 38.788C117.268 42.8772 117.976 47.2809 117.976 51.8419Z" fill="#7DBC42"/>
<path d="M98.8673 68.5919C98.8673 73.1528 98.1596 77.5565 96.9014 81.6457C89.2735 73.546 85.0271 62.8513 85.0271 51.7634C85.0271 47.2024 85.7348 42.7988 87.0717 38.7096C94.6209 46.8093 98.8673 57.504 98.8673 68.5919Z" fill="#7DBC42"/>
<path d="M192.937 130.96V118.139C192.937 116.978 192.812 114.778 190.862 114.778C189.41 114.778 187.75 115.525 186.755 116.231V126.77C186.755 127.392 186.796 127.475 187.377 127.558L189.286 127.848V130.96H178.456V127.848L180.24 127.558C180.78 127.475 180.863 127.351 180.863 126.77V106.024C180.863 105.609 180.738 105.318 180.365 105.194L178.207 104.447L178.622 101.252H186.713V112.372L186.921 112.413C188.705 110.961 190.738 110.048 193.227 110.048C197.377 110.048 198.912 112.33 198.912 116.397V126.728C198.912 127.351 198.953 127.434 199.534 127.516L201.484 127.807V130.919H192.937M26.5123 129.259C24.1887 130.67 20.247 131.417 16.6787 131.417C6.88656 131.417 2.90332 125.732 2.90332 116.604C2.90332 108.223 7.75789 101.999 17.5085 101.999C20.7864 101.999 24.2717 102.829 26.4293 104.239V111.915L22.1141 111.542L21.4917 107.683C21.4088 107.31 21.2428 107.102 20.8694 106.978C19.998 106.687 18.6703 106.521 17.384 106.521C12.405 106.521 9.21011 109.882 9.21011 116.604C9.21011 123.575 12.239 126.936 17.0936 126.936C18.3798 126.936 19.998 126.728 21.0353 126.438C21.4917 126.313 21.6162 126.189 21.7407 125.608L22.3216 121.956H26.5123V129.259ZM43.2336 120.629C43.2336 115.982 41.8228 114.322 39.2503 114.322C36.6363 114.322 34.9352 115.94 34.9352 120.67C34.9352 125.442 36.4704 127.309 39.0844 127.309C41.6569 127.309 43.2336 125.525 43.2336 120.629ZM28.7114 120.836C28.7114 114.322 32.1137 110.048 39.3333 110.048C46.5944 110.048 49.4159 114.363 49.4159 120.38C49.4159 127.06 46.055 131.375 38.7939 131.375C31.6158 131.417 28.7114 127.019 28.7114 120.836ZM69.415 129.508C67.5894 130.628 64.8094 131.417 61.9465 131.417C54.8513 131.417 51.6564 126.977 51.6564 121.002C51.6564 113.658 56.1376 110.09 62.4444 110.09C65.5148 110.09 68.2118 110.961 69.4565 111.749V117.932L65.2243 117.724L64.7679 115.11C64.7264 114.82 64.6435 114.612 64.3115 114.488C63.8551 114.322 63.1082 114.197 62.3199 114.197C59.9548 114.197 57.9632 115.816 57.9632 120.421C57.9632 125.525 60.2453 126.977 63.0253 126.977C64.9754 126.977 66.7595 126.355 67.9213 125.857L69.415 129.508ZM86.5512 130.96L81.5722 120.919L79.4561 123.243V126.77C79.4561 127.392 79.4976 127.475 80.0785 127.558L82.4435 127.848V130.96H70.9087V127.848L72.8589 127.558C73.3983 127.475 73.4812 127.35 73.4812 126.77V106.024C73.4812 105.609 73.3568 105.318 72.9833 105.194L70.8258 104.447L71.2407 101.252H79.4146V118.056L86.5927 110.463H92.0282V113.575L89.9951 113.949C89.4972 114.031 89.3727 114.156 88.9993 114.529L86.2193 117.475L91.2398 126.853C91.5303 127.392 91.7792 127.475 92.4016 127.558L94.1443 127.848V130.919L86.5512 130.96ZM95.9699 130.96V127.765L97.7541 127.516C98.2935 127.433 98.3765 127.309 98.3765 126.728V115.235C98.3765 114.82 98.252 114.529 97.8786 114.405L95.7625 113.658L96.1774 110.463H103.107L103.563 113.617H103.812C105.098 111.625 106.841 110.09 109.372 110.09C110.285 110.09 112.069 110.256 112.774 110.463V117.6L108.044 117.434L107.671 115.359C107.588 114.986 107.463 114.944 107.173 114.944C106.135 114.944 104.932 115.816 104.351 116.314V126.728C104.351 127.35 104.393 127.475 104.974 127.516L108.874 127.848V131.002L95.9699 130.96ZM129.039 120.629C129.039 115.982 127.628 114.322 125.056 114.322C122.442 114.322 120.741 115.94 120.741 120.67C120.741 125.442 122.276 127.309 124.89 127.309C127.462 127.309 129.039 125.525 129.039 120.629ZM114.517 120.836C114.517 114.322 117.919 110.048 125.139 110.048C132.4 110.048 135.221 114.363 135.221 120.38C135.221 127.06 131.861 131.375 124.599 131.375C117.421 131.417 114.517 127.019 114.517 120.836ZM148.748 122.496L146.092 122.703C143.769 122.869 142.939 123.45 142.939 125.027C142.939 126.604 143.893 127.184 145.179 127.184C146.507 127.184 147.835 126.438 148.748 125.774V122.496ZM149.827 130.96L149.453 128.844L149.246 128.803C147.752 130.255 145.802 131.417 142.648 131.417C137.711 131.417 136.923 128.056 136.923 125.608C136.923 121.666 139.371 119.882 144.267 119.55L148.789 119.218V117.06C148.789 115.193 148.582 113.949 146.175 113.949C144.308 113.949 143.312 114.239 143.312 116.563L137.752 116.106C137.752 110.795 142.565 110.048 146.217 110.048C152.192 110.048 154.598 111.666 154.598 117.143V126.687C154.598 127.309 154.64 127.392 155.221 127.475L157.129 127.807V130.919L149.827 130.96ZM175.676 129.508C173.85 130.628 171.071 131.417 168.208 131.417C161.112 131.417 157.918 126.977 157.918 121.002C157.918 113.658 162.399 110.09 168.705 110.09C171.776 110.09 174.473 110.961 175.718 111.749V117.932L171.485 117.724L171.029 115.11C170.988 114.82 170.905 114.612 170.573 114.488C170.116 114.322 169.369 114.197 168.581 114.197C166.216 114.197 164.224 115.816 164.224 120.421C164.224 125.525 166.506 126.977 169.286 126.977C171.236 126.977 173.021 126.355 174.182 125.857L175.676 129.508ZM54.9136 141.502H61.0597V163.606H72.3932V169.244H54.9136V141.502ZM88.5194 149.622L85.1363 158.249H91.9026L88.5194 149.622ZM86.1513 141.502H91.226L103.293 169.301H96.4135L94.0452 163.437H83.2192L80.9074 169.301H74.1411L86.1513 141.502ZM111.92 164.113H117.389C117.84 164.113 118.348 164.057 118.799 163.944C119.25 163.831 119.701 163.662 120.095 163.38C120.49 163.098 120.828 162.76 121.054 162.365C121.336 161.914 121.449 161.35 121.449 160.843C121.449 160.166 121.279 159.659 120.941 159.264C120.603 158.869 120.208 158.531 119.701 158.362C119.193 158.136 118.629 158.024 118.066 157.911C117.558 157.854 116.994 157.798 116.43 157.798H111.807L111.92 164.113ZM111.92 152.61H116.374C116.825 152.61 117.333 152.554 117.784 152.441C118.235 152.329 118.629 152.159 119.024 151.934C119.362 151.708 119.701 151.37 119.926 150.975C120.152 150.581 120.264 150.13 120.264 149.566C120.264 149.002 120.152 148.494 119.87 148.156C119.644 147.761 119.306 147.479 118.911 147.254C118.516 147.028 118.065 146.859 117.558 146.803C117.107 146.69 116.599 146.69 116.092 146.69H111.919L111.92 152.61ZM105.83 141.502H116.205C117.389 141.502 118.629 141.559 119.814 141.784C120.941 141.954 122.069 142.292 123.084 142.799C124.042 143.307 124.832 144.04 125.452 144.942C126.072 145.844 126.354 147.085 126.354 148.607C126.354 150.186 125.903 151.483 125.057 152.498C124.155 153.513 123.028 154.246 121.561 154.697V154.753C122.464 154.866 123.309 155.148 124.042 155.543C124.775 155.937 125.452 156.388 125.96 157.009C126.467 157.572 126.918 158.305 127.2 159.095C127.482 159.884 127.651 160.73 127.651 161.632C127.651 163.098 127.313 164.339 126.693 165.297C126.072 166.256 125.227 167.045 124.268 167.665C123.253 168.286 122.182 168.68 120.941 168.962C119.701 169.244 118.46 169.357 117.22 169.357H105.83V141.502ZM145.187 148.325C144.68 147.705 143.947 147.197 143.157 146.916C142.368 146.634 141.578 146.464 140.733 146.464C140.282 146.464 139.83 146.521 139.379 146.634C138.928 146.746 138.477 146.915 138.026 147.141C137.631 147.367 137.293 147.649 137.011 148.043C136.729 148.438 136.616 148.833 136.616 149.396C136.616 150.242 136.955 150.862 137.575 151.314C138.195 151.765 138.985 152.159 139.943 152.441C140.902 152.78 141.917 153.062 143.044 153.4C144.116 153.738 145.187 154.133 146.146 154.753C147.104 155.317 147.894 156.106 148.514 157.065C149.134 158.023 149.472 159.32 149.472 160.956C149.472 162.478 149.19 163.831 148.627 165.015C148.063 166.143 147.273 167.102 146.315 167.891C145.3 168.68 144.116 169.244 142.875 169.583C141.522 169.977 140.169 170.146 138.759 170.146C137.068 170.146 135.376 169.864 133.741 169.301C132.218 168.737 130.752 167.891 129.399 166.651L133.741 161.858C134.361 162.703 135.15 163.324 136.109 163.775C137.068 164.226 138.026 164.451 139.097 164.451C139.605 164.451 140.112 164.395 140.62 164.282C141.127 164.17 141.578 164 141.973 163.775C142.368 163.549 142.706 163.267 142.932 162.873C143.157 162.478 143.326 162.083 143.326 161.576C143.326 160.73 142.988 160.053 142.368 159.602C141.748 159.095 140.902 158.7 139.943 158.362C138.928 158.023 137.857 157.685 136.786 157.347C135.714 157.009 134.643 156.557 133.628 155.994C132.669 155.43 131.824 154.64 131.203 153.738C130.583 152.78 130.245 151.539 130.245 150.017C130.245 148.551 130.527 147.197 131.147 146.07C131.711 144.942 132.5 143.983 133.515 143.25C134.53 142.461 135.658 141.897 136.898 141.559C138.195 141.164 139.492 140.995 140.845 140.995C142.424 140.995 143.947 141.221 145.413 141.672C146.879 142.123 148.176 142.856 149.36 143.927L145.187 148.325ZM111.292 28.6432C108.068 29.4296 104.766 29.7442 101.463 29.7442C98.0814 29.7442 94.7786 29.351 91.6331 28.6432C94.2281 24.4754 97.6095 20.7795 101.463 17.7126C105.316 20.7795 108.697 24.4754 111.292 28.6432ZM140.939 4.58016C136.85 3.47923 132.682 2.92875 128.514 3.00739C118.92 3.00739 109.484 5.83836 101.463 11.1857C93.4418 5.83836 84.0839 2.92875 74.4115 3.00739C70.0864 3.00739 65.9186 3.55787 61.9867 4.58016C60.3354 4.97336 58.684 5.5238 57.1112 6.1529C57.0326 6.23153 56.9539 6.31017 57.0326 6.3888C57.7403 7.88291 58.5267 9.37701 59.3131 10.7925C59.3917 10.8711 59.4703 10.8711 59.549 10.8711C64.3459 9.1411 69.3787 8.2761 74.4115 8.2761C82.6684 8.2761 90.3749 10.5566 96.9804 14.5671C92.8126 18.1058 89.1953 22.3522 86.443 27.0705C84.9489 29.5082 83.7693 32.1033 82.747 34.7769C80.7025 40.2029 79.6802 46.0221 79.6802 51.7626C79.6802 65.6029 85.4994 78.1062 94.7786 86.9923C95.4863 87.7 96.2727 88.4077 97.0591 89.0368C97.6882 89.5873 98.3173 90.0591 98.9464 90.531C99.7328 91.1601 100.598 91.7892 101.463 92.3396C101.541 92.4183 101.62 92.4183 101.699 92.3396C102.564 91.7892 103.35 91.1601 104.215 90.531C104.844 90.0591 105.473 89.5873 106.102 89.0368C106.889 88.4077 107.675 87.7 108.383 86.9923C117.662 78.1062 123.403 65.6029 123.403 51.7626C123.403 44.8425 121.909 38.0011 119.078 31.7101C118.763 31.081 118.448 30.3733 118.134 29.7442C117.662 28.8005 117.112 27.8569 116.561 26.9919C113.73 22.2736 110.192 18.0272 106.024 14.4885C112.865 10.3993 120.65 8.19748 128.593 8.19748C133.626 8.19748 138.737 9.06248 143.455 10.7925C143.534 10.7925 143.612 10.7925 143.691 10.7139C144.556 9.2984 145.264 7.80429 145.972 6.38882C146.05 6.31019 145.972 6.15292 145.893 6.15292C144.242 5.52382 142.59 4.97335 140.939 4.58016ZM117.976 51.8419C117.976 63.4016 113.493 73.939 106.101 81.7241C104.764 77.4777 104.135 73.074 104.135 68.6703C104.135 57.1106 108.618 46.5731 116.01 38.788C117.268 42.8772 117.976 47.2809 117.976 51.8419ZM98.8673 68.5919C98.8673 73.1528 98.1596 77.5565 96.9014 81.6457C89.2735 73.546 85.0271 62.8513 85.0271 51.7634C85.0271 47.2024 85.7348 42.7988 87.0717 38.7096C94.6209 46.8093 98.8673 57.504 98.8673 68.5919Z" stroke="white" stroke-width="5"/>
<path d="M26.5123 129.259C24.1887 130.67 20.247 131.417 16.6787 131.417C6.88656 131.417 2.90332 125.732 2.90332 116.604C2.90332 108.223 7.75789 101.999 17.5085 101.999C20.7864 101.999 24.2717 102.829 26.4293 104.239V111.915L22.1141 111.542L21.4917 107.683C21.4088 107.31 21.2428 107.102 20.8694 106.978C19.998 106.687 18.6703 106.521 17.384 106.521C12.405 106.521 9.21011 109.882 9.21011 116.604C9.21011 123.575 12.239 126.936 17.0936 126.936C18.3798 126.936 19.998 126.728 21.0353 126.438C21.4917 126.313 21.6162 126.189 21.7407 125.608L22.3216 121.956H26.5123V129.259V129.259ZM43.2336 120.629C43.2336 115.982 41.8228 114.322 39.2503 114.322C36.6363 114.322 34.9352 115.94 34.9352 120.67C34.9352 125.442 36.4704 127.309 39.0844 127.309C41.6569 127.309 43.2336 125.525 43.2336 120.629ZM28.7114 120.836C28.7114 114.322 32.1137 110.048 39.3333 110.048C46.5944 110.048 49.4159 114.363 49.4159 120.38C49.4159 127.06 46.055 131.375 38.7939 131.375C31.6158 131.417 28.7114 127.019 28.7114 120.836ZM69.415 129.508C67.5894 130.628 64.8094 131.417 61.9465 131.417C54.8513 131.417 51.6564 126.977 51.6564 121.002C51.6564 113.658 56.1376 110.09 62.4444 110.09C65.5148 110.09 68.2118 110.961 69.4565 111.749V117.932L65.2243 117.724L64.7679 115.11C64.7264 114.82 64.6435 114.612 64.3115 114.488C63.8551 114.322 63.1082 114.197 62.3199 114.197C59.9548 114.197 57.9632 115.816 57.9632 120.421C57.9632 125.525 60.2453 126.977 63.0253 126.977C64.9754 126.977 66.7595 126.355 67.9213 125.857L69.415 129.508V129.508ZM86.5512 130.96L81.5722 120.919L79.4561 123.243V126.77C79.4561 127.392 79.4976 127.475 80.0785 127.558L82.4435 127.848V130.96H70.9087V127.848L72.8589 127.558C73.3983 127.475 73.4812 127.35 73.4812 126.77V106.024C73.4812 105.609 73.3568 105.318 72.9833 105.194L70.8258 104.447L71.2407 101.252H79.4146V118.056L86.5927 110.463H92.0282V113.575L89.9951 113.949C89.4972 114.031 89.3727 114.156 88.9993 114.529L86.2193 117.475L91.2398 126.853C91.5303 127.392 91.7792 127.475 92.4016 127.558L94.1443 127.848V130.919L86.5512 130.96V130.96ZM95.9699 130.96V127.765L97.7541 127.516C98.2935 127.433 98.3765 127.309 98.3765 126.728V115.235C98.3765 114.82 98.252 114.529 97.8786 114.405L95.7625 113.658L96.1774 110.463H103.107L103.563 113.617H103.812C105.098 111.625 106.841 110.09 109.372 110.09C110.285 110.09 112.069 110.256 112.774 110.463V117.6L108.044 117.434L107.671 115.359C107.588 114.986 107.463 114.944 107.173 114.944C106.135 114.944 104.932 115.816 104.351 116.314V126.728C104.351 127.35 104.393 127.475 104.974 127.516L108.874 127.848V131.002L95.9699 130.96H95.9699ZM129.039 120.629C129.039 115.982 127.628 114.322 125.056 114.322C122.442 114.322 120.741 115.94 120.741 120.67C120.741 125.442 122.276 127.309 124.89 127.309C127.462 127.309 129.039 125.525 129.039 120.629V120.629ZM114.517 120.836C114.517 114.322 117.919 110.048 125.139 110.048C132.4 110.048 135.221 114.363 135.221 120.38C135.221 127.06 131.861 131.375 124.599 131.375C117.421 131.417 114.517 127.019 114.517 120.836ZM148.748 122.496L146.092 122.703C143.769 122.869 142.939 123.45 142.939 125.027C142.939 126.604 143.893 127.184 145.179 127.184C146.507 127.184 147.835 126.438 148.748 125.774V122.496ZM149.827 130.96L149.453 128.844L149.246 128.803C147.752 130.255 145.802 131.417 142.648 131.417C137.711 131.417 136.923 128.056 136.923 125.608C136.923 121.666 139.371 119.882 144.267 119.55L148.789 119.218V117.06C148.789 115.193 148.582 113.949 146.175 113.949C144.308 113.949 143.312 114.239 143.312 116.563L137.752 116.106C137.752 110.795 142.565 110.048 146.217 110.048C152.192 110.048 154.598 111.666 154.598 117.143V126.687C154.598 127.309 154.64 127.392 155.221 127.475L157.129 127.807V130.919L149.827 130.96ZM175.676 129.508C173.85 130.628 171.071 131.417 168.208 131.417C161.112 131.417 157.918 126.977 157.918 121.002C157.918 113.658 162.399 110.09 168.705 110.09C171.776 110.09 174.473 110.961 175.718 111.749V117.932L171.485 117.724L171.029 115.11C170.988 114.82 170.905 114.612 170.573 114.488C170.116 114.322 169.369 114.197 168.581 114.197C166.216 114.197 164.224 115.816 164.224 120.421C164.224 125.525 166.506 126.977 169.286 126.977C171.236 126.977 173.021 126.355 174.182 125.857L175.676 129.508" fill="#151F34"/>
<path d="M192.937 130.96V118.139C192.937 116.977 192.812 114.778 190.862 114.778C189.41 114.778 187.75 115.525 186.754 116.231V126.77C186.754 127.392 186.796 127.475 187.377 127.558L189.285 127.848V130.96H178.456V127.848L180.24 127.558C180.78 127.475 180.863 127.35 180.863 126.77V106.024C180.863 105.609 180.738 105.318 180.365 105.194L178.207 104.447L178.622 101.252H186.713V112.372L186.92 112.413C188.705 110.961 190.738 110.048 193.227 110.048C197.376 110.048 198.912 112.33 198.912 116.397V126.728C198.912 127.35 198.953 127.433 199.534 127.516L201.484 127.807V130.919H192.937" fill="#151F34"/>
<path d="M54.9141 141.503H61.0601V163.606H72.3936V169.244H54.9141V141.503V141.503ZM88.5199 149.622L85.1368 158.249H91.9031L88.5199 149.622ZM86.1517 141.503H91.2265L103.293 169.301H96.4139L94.0457 163.437H83.2197L80.9078 169.301H74.1416L86.1517 141.503ZM111.92 164.113H117.389C117.84 164.113 118.348 164.057 118.799 163.944C119.25 163.831 119.701 163.662 120.096 163.38C120.491 163.098 120.829 162.76 121.054 162.365C121.337 161.914 121.449 161.35 121.449 160.843C121.449 160.166 121.28 159.659 120.942 159.264C120.604 158.869 120.209 158.531 119.701 158.362C119.194 158.136 118.63 158.024 118.066 157.911C117.559 157.854 116.995 157.798 116.431 157.798H111.807L111.92 164.113ZM111.92 152.611H116.374C116.826 152.611 117.333 152.554 117.784 152.441C118.235 152.329 118.63 152.159 119.025 151.934C119.363 151.708 119.701 151.37 119.927 150.975C120.152 150.581 120.265 150.13 120.265 149.566C120.265 149.002 120.152 148.494 119.87 148.156C119.645 147.761 119.306 147.479 118.912 147.254C118.517 147.028 118.066 146.859 117.558 146.803C117.107 146.69 116.6 146.69 116.092 146.69H111.92L111.92 152.611ZM105.83 141.503H116.205C117.389 141.503 118.63 141.559 119.814 141.785C120.942 141.954 122.069 142.292 123.084 142.799C124.043 143.307 124.832 144.04 125.453 144.942C126.073 145.844 126.355 147.085 126.355 148.607C126.355 150.186 125.904 151.483 125.058 152.498C124.156 153.513 123.028 154.246 121.562 154.697V154.753C122.464 154.866 123.31 155.148 124.043 155.543C124.776 155.937 125.453 156.388 125.96 157.009C126.468 157.573 126.919 158.306 127.2 159.095C127.483 159.884 127.652 160.73 127.652 161.632C127.652 163.098 127.313 164.339 126.693 165.297C126.073 166.256 125.227 167.045 124.268 167.666C123.253 168.286 122.182 168.68 120.942 168.962C119.701 169.244 118.461 169.357 117.22 169.357H105.83V141.503ZM145.188 148.325C144.68 147.705 143.947 147.198 143.158 146.916C142.368 146.634 141.579 146.465 140.733 146.465C140.282 146.465 139.831 146.521 139.38 146.634C138.929 146.746 138.478 146.916 138.027 147.141C137.632 147.367 137.294 147.649 137.012 148.043C136.73 148.438 136.617 148.833 136.617 149.397C136.617 150.242 136.955 150.863 137.575 151.314C138.196 151.765 138.985 152.159 139.944 152.441C140.902 152.78 141.917 153.062 143.045 153.4C144.116 153.738 145.188 154.133 146.146 154.753C147.105 155.317 147.894 156.106 148.514 157.065C149.135 158.024 149.473 159.32 149.473 160.956C149.473 162.478 149.191 163.831 148.627 165.015C148.063 166.143 147.274 167.102 146.315 167.891C145.3 168.68 144.116 169.244 142.876 169.583C141.522 169.977 140.169 170.147 138.76 170.147C137.068 170.147 135.376 169.865 133.741 169.301C132.219 168.737 130.753 167.891 129.4 166.651L133.741 161.858C134.362 162.704 135.151 163.324 136.109 163.775C137.068 164.226 138.027 164.452 139.098 164.452C139.605 164.452 140.113 164.395 140.62 164.282C141.128 164.17 141.579 164 141.974 163.775C142.368 163.549 142.707 163.267 142.932 162.873C143.158 162.478 143.327 162.083 143.327 161.576C143.327 160.73 142.989 160.053 142.368 159.602C141.748 159.095 140.902 158.7 139.944 158.362C138.929 158.024 137.857 157.685 136.786 157.347C135.715 157.009 134.643 156.558 133.628 155.994C132.67 155.43 131.824 154.64 131.204 153.738C130.584 152.78 130.245 151.539 130.245 150.017C130.245 148.551 130.527 147.198 131.148 146.07C131.711 144.942 132.501 143.984 133.516 143.251C134.531 142.461 135.658 141.897 136.899 141.559C138.196 141.164 139.493 140.995 140.846 140.995C142.425 140.995 143.947 141.221 145.413 141.672C146.879 142.123 148.176 142.856 149.36 143.927L145.188 148.325" fill="#348540"/>
<path d="M111.292 28.6432C108.068 29.4296 104.766 29.7442 101.463 29.7442C98.0814 29.7442 94.7786 29.351 91.6331 28.6432C94.2281 24.4754 97.6095 20.7795 101.463 17.7126C105.316 20.7795 108.697 24.4754 111.292 28.6432ZM140.939 4.58016C136.85 3.47923 132.682 2.92875 128.514 3.00739C118.92 3.00739 109.484 5.83836 101.463 11.1857C93.4418 5.83836 84.0839 2.92875 74.4115 3.00739C70.0864 3.00739 65.9186 3.55787 61.9867 4.58016C60.3353 4.97336 58.684 5.5238 57.1112 6.1529C57.0326 6.23153 56.9539 6.31017 57.0326 6.3888C57.7403 7.88291 58.5267 9.37701 59.3131 10.7925C59.3917 10.8711 59.4703 10.8711 59.549 10.8711C64.3459 9.1411 69.3787 8.2761 74.4115 8.2761C82.6684 8.2761 90.3749 10.5566 96.9804 14.5671C92.8127 18.1058 89.1953 22.3522 86.443 27.0705C84.9489 29.5082 83.7693 32.1033 82.747 34.7769C80.7025 40.2029 79.6802 46.0221 79.6802 51.7626C79.6802 65.6029 85.4994 78.1062 94.7786 86.9923C95.4863 87.7 96.2727 88.4077 97.0591 89.0368C97.6882 89.5873 98.3173 90.0591 98.9464 90.531C99.7328 91.1601 100.598 91.7892 101.463 92.3396C101.541 92.4183 101.62 92.4183 101.699 92.3396C102.564 91.7892 103.35 91.1601 104.215 90.531C104.844 90.0591 105.473 89.5873 106.102 89.0368C106.889 88.4077 107.675 87.7 108.383 86.9923C117.662 78.1062 123.403 65.6029 123.403 51.7626C123.403 44.8425 121.909 38.0011 119.078 31.7101C118.763 31.081 118.448 30.3733 118.134 29.7442C117.662 28.8005 117.112 27.8569 116.561 26.9919C113.73 22.2736 110.192 18.0272 106.024 14.4885C112.865 10.3993 120.65 8.19748 128.593 8.19748C133.626 8.19748 138.737 9.06248 143.455 10.7925C143.534 10.7925 143.612 10.7925 143.691 10.7139C144.556 9.2984 145.264 7.80429 145.972 6.38882C146.05 6.31019 145.972 6.15292 145.893 6.15292C144.242 5.52382 142.59 4.97336 140.939 4.58017L140.939 4.58016Z" fill="#151F34"/>
<path d="M117.976 51.8419C117.976 63.4016 113.494 73.9391 106.102 81.7242C104.765 77.4778 104.136 73.0741 104.136 68.6704C104.136 57.1106 108.618 46.5732 116.01 38.7881C117.268 42.8772 117.976 47.2809 117.976 51.8419" fill="#348540"/>
<path d="M98.8676 68.5922C98.8676 73.1532 98.1598 77.5569 96.9016 81.646C89.2738 73.5464 85.0273 62.8517 85.0273 51.7638C85.0273 47.2028 85.7351 42.7991 87.0719 38.71C94.6211 46.8096 98.8676 57.5043 98.8676 68.5922Z" fill="#7DBC42"/>
</svg>
