<svg width="91" height="110" viewBox="0 0 91 110" fill="none" xmlns="http://www.w3.org/2000/svg">
<path d="M84.696 41.1945C84.706 37.9897 83.725 34.8601 81.887 32.2345C80.049 29.609 77.444 27.616 74.43 26.5285C74.703 25.1311 74.841 23.7104 74.84 22.2864C74.838 17.5727 73.342 12.9809 70.567 9.17051C67.792 5.36021 63.881 2.52731 59.396 1.07881C54.91 -0.369683 50.081 -0.359284 45.601 1.10851C41.122 2.57631 37.223 5.42601 34.4647 9.24831C32.4304 7.66771 29.9362 6.79351 27.3602 6.75831C24.7843 6.72311 22.2671 7.52881 20.1904 9.05331C18.1137 10.5778 16.5908 12.7378 15.8525 15.2059C15.1141 17.674 15.2008 20.3156 16.0992 22.73C13.0768 23.8292 10.4638 25.8281 8.61189 28.4574C6.75999 31.0868 5.75819 34.2204 5.74129 37.4364C5.73099 40.6529 6.71848 43.7935 8.56758 46.4254C10.4168 49.0573 13.0366 51.0509 16.0662 52.1317C15.7971 53.5298 15.6608 54.9501 15.6592 56.3739C15.6494 61.0892 17.1391 65.6856 19.9129 69.4988C22.6868 73.312 26.6011 76.1446 31.0903 77.5872C35.58 79.0299 40.411 79.008 44.887 77.5246C49.363 76.0412 53.252 73.1732 55.991 69.3349C58.019 70.919 60.509 71.7977 63.083 71.8376C65.656 71.8775 68.172 71.0765 70.249 69.5561C72.326 68.0357 73.849 65.8791 74.589 63.4139C75.328 60.9486 75.242 58.3095 74.345 55.8972C77.365 54.7966 79.976 52.7977 81.826 50.1693C83.677 47.5408 84.678 44.4089 84.696 41.1945Z" fill="white"/>
<path d="M36.778 33.8651L54.051 41.737L71.496 26.4697C71.746 25.208 71.869 23.9244 71.863 22.6382C71.865 18.4753 70.534 14.421 68.064 11.0699C65.594 7.71882 62.116 5.24701 58.139 4.01701C54.162 2.78691 49.895 2.86331 45.964 4.23501C42.034 5.60661 38.646 8.20131 36.298 11.6387L33.4014 26.6714L36.778 33.8651Z" fill="#FEC514"/>
<path d="M18.9011 52.1576C18.6509 53.4378 18.5281 54.7396 18.5344 56.0441C18.5308 60.222 19.8676 64.2909 22.3481 67.6527C24.8287 71.0146 28.3222 73.4921 32.3153 74.721C36.308 75.95 40.59 75.8657 44.532 74.4805C48.474 73.0952 51.867 70.4821 54.213 67.0252L57.091 52.0366L53.253 44.7036L35.895 36.7949L18.9011 52.1576Z" fill="#00BFB3"/>
<path d="M18.7911 22.2644L30.6266 25.0583L33.2225 11.5986C31.6116 10.3824 29.6507 9.71965 27.6323 9.70935C25.6139 9.69895 23.6463 10.3417 22.0231 11.5413C20.3999 12.741 19.2081 14.4334 18.6256 16.3659C18.0431 18.2985 18.1012 20.3676 18.7911 22.2644Z" fill="#F04E98"/>
<path d="M17.7636 25.084C15.2023 25.9271 12.9651 27.5427 11.3592 29.7087C9.75338 31.8748 8.85778 34.4851 8.79548 37.1808C8.73318 39.8765 9.50727 42.5253 11.0114 44.7632C12.5155 47.0012 14.6757 48.7184 17.1953 49.6789L33.8045 34.6682L30.754 28.1528L17.7636 25.084Z" fill="#1BA9F5"/>
<path d="M57.238 67.0251C58.617 68.0851 60.264 68.7374 61.995 68.9079C63.725 69.0784 65.469 68.7604 67.027 67.9898C68.586 67.2192 69.898 66.0271 70.813 64.5487C71.728 63.0703 72.21 61.3649 72.205 59.6261C72.21 58.5196 72.018 57.4211 71.64 56.3812L59.812 53.613L57.238 67.0251Z" fill="#93C90E"/>
<path d="M59.643 50.5111L72.663 53.558C75.263 52.6823 77.524 51.0167 79.132 48.7937C80.74 46.5707 81.613 43.9013 81.631 41.1579C81.629 38.5144 80.823 35.9342 79.32 33.7594C77.817 31.5847 75.688 29.9184 73.216 28.9814L56.186 43.9041L59.643 50.5111Z" fill="#0077CC"/>
<path d="M12.8328 107.404L13.8594 107.298L13.929 109.392C11.6408 109.737 9.33161 109.925 7.01771 109.956C4.46341 109.956 2.65461 109.223 1.59131 107.756C0.528009 106.29 -0.00239189 103.986 8.10809e-06 100.845C8.10809e-06 94.631 2.47001 91.523 7.41001 91.521C9.79571 91.521 11.58 92.188 12.7631 93.523C13.9462 94.858 14.5377 96.956 14.5377 99.818L14.3947 101.839H2.69491C2.69491 103.794 3.04931 105.247 3.75821 106.198C4.46701 107.149 5.7026 107.622 7.465 107.617C9.2249 107.617 11.0142 107.546 12.8328 107.404ZM11.8795 99.727C11.8795 97.551 11.5299 96.015 10.8309 95.118C10.1318 94.221 8.99761 93.771 7.42831 93.769C5.85421 93.769 4.67241 94.242 3.88281 95.187C3.09331 96.133 2.68511 97.647 2.65821 99.727H11.8795Z" fill="white"/>
<path d="M18.2451 109.821V86.4834H20.8997V109.821H18.2451Z" fill="white"/>
<path d="M37.651 97.23V106.172C37.651 107.056 39.851 107.023 39.851 107.023L39.716 109.373C37.846 109.373 36.302 109.527 35.371 108.64C33.3628 109.531 31.1878 109.983 28.9911 109.967C27.3583 109.967 26.1178 109.506 25.2696 108.585C24.4214 107.663 23.9985 106.336 24.001 104.603C24.001 102.88 24.4385 101.61 25.3136 100.794C26.1887 99.977 27.5587 99.475 29.4237 99.287L34.9895 98.755V97.23C34.9895 96.022 34.7304 95.159 34.2122 94.641C33.929 94.374 33.5945 94.167 33.229 94.033C32.8635 93.898 32.4745 93.84 32.0856 93.86H25.0973V91.514H31.8986C33.9079 91.514 35.367 91.974 36.276 92.896C37.186 93.817 37.644 95.262 37.651 97.23ZM26.7289 104.46C26.7289 106.638 27.6272 107.726 29.4237 107.723C31.0472 107.723 32.6588 107.448 34.1902 106.909L35.004 106.623V100.775L29.7574 101.27C28.6941 101.366 27.9266 101.674 27.4548 102.194C26.9672 102.711 26.7289 103.47 26.7289 104.46Z" fill="white"/>
<path d="M48.031 93.8971C45.457 93.8971 44.169 94.7951 44.166 96.5911C44.136 96.9371 44.203 97.2851 44.36 97.5951C44.516 97.9041 44.757 98.1641 45.054 98.3441C45.643 98.6891 46.987 99.0431 49.087 99.4071C51.186 99.7721 52.675 100.286 53.553 100.951C54.425 101.613 54.863 102.854 54.865 104.672C54.868 106.491 54.282 107.827 53.109 108.68C51.94 109.531 50.229 109.956 47.976 109.956C46.509 109.956 41.618 109.413 41.618 109.413L41.761 107.111C44.57 107.382 46.604 107.58 47.994 107.58C49.384 107.58 50.41 107.364 51.133 106.927C51.855 106.491 52.214 105.754 52.214 104.727C52.214 103.701 51.906 103 51.29 102.634C50.674 102.267 49.329 101.919 47.257 101.589C45.186 101.259 43.697 100.775 42.824 100.122C41.952 99.4701 41.512 98.2891 41.512 96.5771C41.512 94.8651 42.12 93.5741 43.345 92.7451C44.703 91.8801 46.293 91.4471 47.902 91.5061C49.343 91.5061 54.344 91.8731 54.344 91.8731V94.1901C51.697 94.0841 49.541 93.8971 48.031 93.8971Z" fill="white"/>
<path d="M67.6979 94.179H62.0589V102.66C62.0589 104.693 62.2069 106.029 62.5029 106.667C62.7999 107.305 63.4999 107.624 64.6109 107.624L67.768 107.411L67.9439 109.611C66.7499 109.83 65.5419 109.96 64.3289 110C62.4829 110 61.2079 109.551 60.5009 108.654C59.7949 107.757 59.44 106.046 59.438 103.521V94.179H56.9189V91.876H59.438V86.45H62.0589V91.876H67.6979V94.179Z" fill="white"/>
<path d="M71.394 89.6106V86.5271H74.063V89.6106H71.394ZM71.394 109.82V91.877H74.063V109.82H71.394Z" fill="white"/>
<path d="M85.5721 91.521C86.9041 91.577 88.2301 91.719 89.5431 91.946L90.3941 92.053L90.2871 94.216C88.8991 94.039 87.5031 93.933 86.1041 93.897C84.0951 93.897 82.7301 94.375 82.0081 95.33C81.2871 96.286 80.9271 98.06 80.9271 100.651C80.9271 103.239 81.2641 105.042 81.9391 106.059C82.6131 107.076 84.0131 107.583 86.1371 107.58L90.3241 107.261L90.4301 109.461C88.8001 109.737 87.1521 109.903 85.4991 109.956C82.7341 109.956 80.8271 109.247 79.7761 107.83C78.7251 106.412 78.1981 104.019 78.1951 100.651C78.1951 97.282 78.7641 94.919 79.9001 93.56C81.0371 92.201 82.9281 91.521 85.5721 91.521Z" fill="white"/>
</svg>
