<svg width="223" height="158" viewBox="0 0 223 158" fill="none" xmlns="http://www.w3.org/2000/svg">
<path fill-rule="evenodd" clip-rule="evenodd" d="M205.051 113.66C204.813 113.709 204.574 114.24 204.574 114.53C204.526 116.465 204.479 121.592 204.479 125.074C204.479 125.171 204.622 125.364 204.765 125.364C205.481 125.413 207.199 125.461 208.679 125.461C210.732 125.461 211.925 125.171 212.594 124.881C214.312 124.01 215.123 122.124 215.123 120.044C215.123 115.353 211.877 113.563 207.056 113.563C206.722 113.515 205.768 113.515 205.051 113.66V113.66ZM217.367 135.279C217.367 130.491 213.882 127.831 207.582 127.831C207.295 127.831 205.29 127.783 204.813 127.879C204.669 127.928 204.479 128.025 204.479 128.17C204.479 131.603 204.431 137.069 204.574 139.197C204.669 140.115 205.338 141.421 206.15 141.808C207.008 142.292 208.966 142.388 210.302 142.388C214.073 142.388 217.367 140.261 217.367 135.279V135.279ZM195.314 111.001C195.791 111.001 197.223 111.145 200.898 111.145C204.383 111.145 207.152 111.049 210.541 111.049C214.694 111.049 220.422 112.548 220.422 118.835C220.422 121.93 218.274 124.397 215.458 125.606C215.315 125.655 215.315 125.751 215.458 125.799C219.467 126.816 223 129.33 223 134.07C223 138.713 220.136 141.663 215.983 143.501C213.453 144.613 210.302 145 207.104 145C204.669 145 198.13 144.71 194.502 144.807C194.12 144.661 194.836 142.92 195.17 142.631C196.03 142.582 196.697 142.534 197.605 142.243C198.894 141.905 199.037 141.518 199.227 139.535C199.323 137.842 199.323 131.845 199.323 127.589C199.323 121.737 199.371 117.771 199.323 115.837C199.276 114.338 198.751 113.854 197.7 113.563C196.888 113.419 195.552 113.225 194.454 113.08C194.215 112.838 195.027 111.193 195.314 111.001ZM167.77 141.083C168.916 142.001 171.159 142.388 173.164 142.388C175.742 142.388 178.32 141.905 180.802 139.631C183.332 137.311 185.098 133.731 185.098 128.025C185.098 122.559 183.045 118.109 178.845 115.498C176.458 113.998 173.403 113.37 169.87 113.37C168.82 113.37 167.818 113.419 167.198 113.709C167.054 113.805 166.72 114.24 166.72 114.482C166.625 115.45 166.625 122.897 166.625 127.251C166.625 131.748 166.625 138.036 166.72 138.761C166.72 139.487 167.054 140.599 167.77 141.083H167.77ZM156.934 111C157.841 111 161.326 111.145 162.996 111.145C166.004 111.145 168.152 111.001 173.832 111.001C178.606 111.001 182.616 112.306 185.48 114.772C188.964 117.819 190.779 122.027 190.779 127.154C190.779 134.457 187.485 138.665 184.191 141.083C180.898 143.549 176.601 145 170.491 145C167.245 145 161.66 144.904 157.03 144.855H156.982C156.743 144.42 157.364 142.727 157.745 142.679C158.987 142.534 159.321 142.485 159.942 142.244C160.944 141.856 161.135 141.325 161.278 139.535C161.421 136.198 161.374 132.184 161.374 127.637C161.374 124.397 161.421 118.061 161.326 116.03C161.183 114.337 160.467 113.902 159.035 113.612C158.319 113.467 157.364 113.273 156.028 113.128C155.836 112.789 156.695 111.29 156.934 111.001V111Z" fill="#8E714E"/>
<path fill-rule="evenodd" clip-rule="evenodd" d="M98.7368 142.619C97.534 142.475 96.6679 142.283 95.6095 141.802C95.4651 141.706 95.2242 141.226 95.2242 141.033C95.1283 139.351 95.1283 134.544 95.1283 131.325C95.1283 128.729 94.6955 126.47 93.5886 124.884C92.2893 123.057 90.4133 122 88.0071 122C85.8903 122 83.0513 123.442 80.6936 125.46C80.6456 125.508 80.2608 125.845 80.3088 125.316C80.3088 124.788 80.4052 123.73 80.4532 123.009C80.5017 122.336 80.1164 122 80.1164 122C78.5767 122.769 74.2466 123.778 72.6584 123.922C71.504 124.163 71.2152 125.268 72.4186 125.653H72.4665C73.7648 126.037 74.6313 126.47 75.3045 126.903C75.7857 127.287 75.7377 127.816 75.7377 128.249C75.7857 131.853 75.7857 137.38 75.6418 140.409C75.5938 141.61 75.257 142.042 74.3905 142.235L74.4869 142.187C73.8133 142.331 73.2841 142.475 72.466 142.571C72.1772 142.86 72.1772 144.398 72.466 144.734C72.9952 144.734 75.7857 144.59 78.096 144.59C81.2713 144.59 82.9074 144.734 83.7249 144.734C84.0617 144.35 84.1582 142.908 83.9658 142.571C83.0513 142.523 82.3776 142.427 81.7525 142.235C80.8865 142.042 80.6456 141.61 80.5971 140.601C80.5017 138.053 80.5017 132.67 80.5017 129.017C80.5017 128.008 80.79 127.527 81.0783 127.239C82.1852 126.278 83.9658 125.605 85.5534 125.605C87.0931 125.605 88.103 126.085 88.8731 126.71C89.9316 127.575 90.2684 128.825 90.4128 129.738C90.6532 131.805 90.5572 135.89 90.5572 139.447C90.5572 141.37 90.4128 141.85 89.6917 142.09C89.3544 142.235 88.4883 142.427 87.4779 142.523C87.1411 142.86 87.2375 144.35 87.4779 144.686C88.8731 144.686 90.5093 144.542 92.915 144.542C95.8978 144.542 97.8228 144.686 98.5929 144.686C98.8327 144.398 98.9292 143.004 98.7368 142.619V142.619ZM112.065 124.259C109.515 124.259 107.927 126.23 107.927 129.305C107.927 132.43 109.322 136.035 113.267 136.035C113.941 136.035 115.192 135.746 115.769 135.073C116.684 134.209 117.309 132.478 117.309 130.651C117.309 126.662 115.336 124.259 112.065 124.259V124.259ZM111.728 145.503C110.766 145.503 110.092 145.791 109.659 146.032C107.638 147.329 106.724 148.579 106.724 150.07C106.724 151.463 107.253 152.568 108.408 153.53C109.803 154.731 111.728 155.308 114.181 155.308C119.089 155.308 121.255 152.665 121.255 150.07C121.255 148.243 120.34 147.041 118.464 146.369C117.117 145.791 114.663 145.503 111.728 145.503V145.503ZM112.065 158C109.13 158 107.012 157.375 105.184 155.981C103.404 154.635 102.634 152.617 102.634 151.223C102.634 150.838 102.731 149.781 103.597 148.82C104.125 148.243 105.281 147.137 108.023 145.263C108.119 145.215 108.167 145.167 108.167 145.07C108.167 144.974 108.071 144.878 107.975 144.831C105.714 143.965 105.04 142.571 104.847 141.802V141.706C104.8 141.417 104.703 141.129 105.136 140.841C105.473 140.601 105.954 140.312 106.483 139.976C107.301 139.495 108.167 138.966 108.696 138.534C108.793 138.438 108.793 138.342 108.793 138.246C108.793 138.149 108.696 138.053 108.6 138.005C105.233 136.9 103.549 134.4 103.549 130.651C103.549 128.2 104.655 125.989 106.628 124.595C107.975 123.538 111.343 122.24 113.556 122.24H113.701C115.962 122.288 117.213 122.769 118.993 123.394C119.955 123.73 120.87 123.874 122.121 123.874C123.997 123.874 124.815 123.297 125.488 122.625C125.537 122.721 125.633 122.961 125.681 123.586C125.729 124.211 125.537 125.124 125.056 125.797C124.671 126.326 123.805 126.71 122.939 126.71H122.698C121.832 126.614 121.446 126.518 121.446 126.518L121.255 126.614C121.207 126.71 121.255 126.806 121.303 126.951L121.351 127.047C121.447 127.479 121.639 128.777 121.639 129.114C121.639 133.055 120.052 134.785 118.368 136.082C116.732 137.284 114.856 138.053 112.738 138.246C112.69 138.246 112.498 138.246 112.065 138.293C111.824 138.293 111.487 138.342 111.439 138.342H111.391C111.006 138.438 110.044 138.918 110.044 139.735C110.044 140.456 110.477 141.322 112.546 141.466C112.979 141.514 113.411 141.514 113.893 141.562C116.636 141.754 120.052 141.995 121.639 142.523C123.853 143.34 125.248 145.311 125.248 147.666C125.248 151.223 122.698 154.54 118.464 156.606C116.395 157.519 114.326 158 112.065 158V158ZM139.49 124.5C138.48 124.5 137.565 124.739 136.892 125.22C135.016 126.373 134.053 128.681 134.053 132.045C134.053 138.342 137.228 142.764 141.752 142.764C143.099 142.764 144.157 142.379 145.071 141.61C146.466 140.456 147.189 138.149 147.189 134.929C147.189 128.681 144.061 124.499 139.49 124.499L139.49 124.5ZM140.356 145.071C132.177 145.071 129.242 139.063 129.242 133.439C129.242 129.498 130.829 126.47 134.005 124.307C136.266 122.913 138.961 122.144 141.367 122.144C147.621 122.144 152 126.614 152 133.055C152 137.428 150.268 140.889 146.948 143.004C145.36 144.061 142.618 145.071 140.356 145.071H140.356V145.071ZM54.6157 124.499C53.6052 124.499 52.6912 124.739 52.0171 125.22C50.1411 126.373 49.1786 128.681 49.1786 132.045C49.1786 138.342 52.3539 142.764 56.8769 142.764C58.2242 142.764 59.2826 142.379 60.1972 141.61C61.5919 140.456 62.314 138.149 62.314 134.929C62.314 128.681 59.2347 124.499 54.6157 124.499ZM55.4817 145.071C47.3021 145.071 44.3672 139.063 44.3672 133.439C44.3672 129.498 45.9548 126.47 49.1301 124.307C51.3919 122.913 54.0865 122.144 56.4922 122.144C62.7473 122.144 67.1254 126.614 67.1254 133.055C67.1254 137.428 65.3933 140.889 62.0731 143.004C60.5335 144.061 57.7909 145.071 55.4817 145.071ZM0.486441 144.59C0.389984 144.446 0.293526 144.013 0.342016 143.485C0.342016 143.1 0.438473 142.86 0.486441 142.764C1.4969 142.619 2.02611 142.475 2.60329 142.331C3.56577 142.09 3.95056 141.562 3.99853 140.361C4.14348 137.477 4.14348 131.997 4.09499 128.2V128.104C4.09499 127.671 4.09499 127.142 3.56577 126.758C2.79568 126.278 1.88168 125.845 0.678832 125.508C0.246078 125.365 -0.0427726 125.124 0.00519539 124.836C0.00519539 124.547 0.294049 124.211 0.919718 124.115C2.50735 123.97 6.64459 122.961 8.28071 122.24C8.37717 122.336 8.52159 122.625 8.52159 123.009L8.47363 123.538C8.42514 124.067 8.37717 124.692 8.37717 125.316C8.37717 125.508 8.57008 125.653 8.76196 125.653C8.85841 125.653 8.95487 125.605 9.0508 125.556C12.1301 123.153 14.9206 122.288 16.3638 122.288C18.7221 122.288 20.5506 123.394 21.9458 125.701C22.0418 125.845 22.1382 125.893 22.2827 125.893C22.3786 125.893 22.5225 125.845 22.571 125.749C25.41 123.586 28.2489 122.288 30.1249 122.288C34.5995 122.288 37.2461 125.605 37.2461 131.228C37.2461 132.814 37.2461 134.881 37.1981 136.756C37.1981 138.438 37.1501 139.976 37.1501 141.082C37.1501 141.321 37.4864 142.09 38.0156 142.235C38.6893 142.571 39.6038 142.715 40.8066 142.908H40.8546C40.9511 143.244 40.7587 144.494 40.5663 144.734C40.2774 144.734 39.8441 144.734 39.3634 144.686C38.1454 144.623 36.926 144.591 35.7064 144.59C32.7235 144.59 31.1838 144.638 29.6916 144.734C29.5962 144.35 29.5477 143.196 29.6916 142.908C30.5582 142.764 30.9909 142.619 31.5207 142.475C32.4831 142.187 32.7235 141.754 32.772 140.504C32.772 139.591 32.9639 131.805 32.675 129.93C32.3867 128.008 30.943 125.749 27.7672 125.749C26.5643 125.749 24.6884 126.23 22.8598 127.623C22.7639 127.719 22.6669 127.959 22.6669 128.104V128.152C22.8598 129.161 22.8598 130.315 22.8598 132.093V135.217C22.8598 137.38 22.8113 139.399 22.8598 140.937C22.8598 141.995 23.4855 142.235 24.0147 142.427C24.3036 142.475 24.4954 142.523 24.7363 142.571C25.1691 142.667 25.6024 142.764 26.276 142.908C26.3725 143.1 26.3724 143.725 26.228 144.253C26.1795 144.542 26.0831 144.686 26.0351 144.734C24.3995 144.686 22.7154 144.638 20.2618 144.638C19.5401 144.638 18.2888 144.686 17.2304 144.686C16.3638 144.686 15.5463 144.734 15.0656 144.734C15.0171 144.638 14.9206 144.302 14.9206 143.773C14.9206 143.34 15.0171 143.004 15.1135 142.908C15.3539 142.86 15.5463 142.812 15.7872 142.812C16.3638 142.715 16.8456 142.619 17.3263 142.523C18.1449 142.283 18.4332 141.85 18.4812 140.793C18.6256 138.39 18.7701 131.517 18.4332 129.786C17.8561 126.999 16.2684 125.605 13.7178 125.605C12.2266 125.605 10.3496 126.326 8.81044 127.48C8.56956 127.671 8.37717 128.152 8.37717 128.584V131.42C8.37717 134.881 8.37717 139.207 8.42514 141.082C8.47363 141.658 8.6655 142.331 9.77241 142.571C10.0133 142.619 10.3981 142.715 10.8793 142.764L11.7448 142.908C11.8418 143.196 11.7933 144.35 11.6009 144.734C11.1197 144.734 10.5425 144.686 9.86834 144.686C8.85841 144.638 7.55911 144.59 6.1159 144.59C4.4318 144.59 3.22896 144.638 2.26647 144.686C1.59283 144.59 1.06362 144.59 0.486441 144.59V144.59Z" fill="#442D22"/>
<path fill-rule="evenodd" clip-rule="evenodd" d="M205.051 113.66C204.813 113.709 204.574 114.24 204.574 114.53C204.526 116.465 204.479 121.592 204.479 125.074C204.479 125.171 204.622 125.364 204.765 125.364C205.481 125.413 207.199 125.461 208.679 125.461C210.732 125.461 211.925 125.171 212.594 124.881C214.312 124.01 215.123 122.124 215.123 120.044C215.123 115.353 211.877 113.563 207.056 113.563C206.722 113.515 205.768 113.515 205.051 113.66V113.66ZM217.367 135.279C217.367 130.491 213.882 127.831 207.582 127.831C207.295 127.831 205.29 127.783 204.813 127.879C204.669 127.928 204.479 128.025 204.479 128.17C204.479 131.603 204.431 137.069 204.574 139.197C204.669 140.115 205.338 141.421 206.15 141.808C207.008 142.292 208.966 142.388 210.302 142.388C214.073 142.388 217.367 140.261 217.367 135.279V135.279ZM195.314 111.001C195.791 111.001 197.223 111.145 200.898 111.145C204.383 111.145 207.152 111.049 210.541 111.049C214.694 111.049 220.422 112.548 220.422 118.835C220.422 121.93 218.274 124.397 215.458 125.606C215.315 125.655 215.315 125.751 215.458 125.799C219.467 126.816 223 129.33 223 134.07C223 138.713 220.136 141.663 215.983 143.501C213.453 144.613 210.302 145 207.104 145C204.669 145 198.13 144.71 194.502 144.807C194.12 144.661 194.836 142.92 195.17 142.631C196.03 142.582 196.697 142.534 197.605 142.243C198.894 141.905 199.037 141.518 199.227 139.535C199.323 137.842 199.323 131.845 199.323 127.589C199.323 121.737 199.371 117.771 199.323 115.837C199.276 114.338 198.751 113.854 197.7 113.563C196.888 113.419 195.552 113.225 194.454 113.08C194.215 112.838 195.027 111.193 195.314 111.001ZM167.77 141.083C168.916 142.001 171.159 142.388 173.164 142.388C175.742 142.388 178.32 141.905 180.802 139.631C183.332 137.311 185.098 133.731 185.098 128.025C185.098 122.559 183.045 118.109 178.845 115.498C176.458 113.998 173.403 113.37 169.87 113.37C168.82 113.37 167.818 113.419 167.198 113.709C167.054 113.805 166.72 114.24 166.72 114.482C166.625 115.45 166.625 122.897 166.625 127.251C166.625 131.748 166.625 138.036 166.72 138.761C166.72 139.487 167.054 140.599 167.77 141.083H167.77ZM156.934 111C157.841 111 161.326 111.145 162.996 111.145C166.004 111.145 168.152 111.001 173.832 111.001C178.606 111.001 182.616 112.306 185.48 114.772C188.964 117.819 190.779 122.027 190.779 127.154C190.779 134.457 187.485 138.665 184.191 141.083C180.898 143.549 176.601 145 170.491 145C167.245 145 161.66 144.904 157.03 144.855H156.982C156.743 144.42 157.364 142.727 157.745 142.679C158.987 142.534 159.321 142.485 159.942 142.244C160.944 141.856 161.135 141.325 161.278 139.535C161.421 136.198 161.374 132.184 161.374 127.637C161.374 124.397 161.421 118.061 161.326 116.03C161.183 114.337 160.467 113.902 159.035 113.612C158.319 113.467 157.364 113.273 156.028 113.128C155.836 112.789 156.695 111.29 156.934 111.001V111Z" fill="white"/>
<path fill-rule="evenodd" clip-rule="evenodd" d="M98.7368 142.619C97.534 142.475 96.6679 142.283 95.6095 141.802C95.4651 141.706 95.2242 141.226 95.2242 141.033C95.1283 139.351 95.1283 134.544 95.1283 131.325C95.1283 128.729 94.6955 126.47 93.5886 124.884C92.2893 123.057 90.4133 122 88.0071 122C85.8903 122 83.0513 123.442 80.6936 125.46C80.6456 125.508 80.2608 125.845 80.3088 125.316C80.3088 124.788 80.4052 123.73 80.4532 123.009C80.5017 122.336 80.1164 122 80.1164 122C78.5767 122.769 74.2466 123.778 72.6584 123.922C71.504 124.163 71.2152 125.268 72.4186 125.653H72.4665C73.7648 126.037 74.6313 126.47 75.3045 126.903C75.7857 127.287 75.7377 127.816 75.7377 128.249C75.7857 131.853 75.7857 137.38 75.6418 140.409C75.5938 141.61 75.257 142.042 74.3905 142.235L74.4869 142.187C73.8133 142.331 73.2841 142.475 72.466 142.571C72.1772 142.86 72.1772 144.398 72.466 144.734C72.9952 144.734 75.7857 144.59 78.096 144.59C81.2713 144.59 82.9074 144.734 83.7249 144.734C84.0617 144.35 84.1582 142.908 83.9658 142.571C83.0513 142.523 82.3776 142.427 81.7525 142.235C80.8865 142.042 80.6456 141.61 80.5971 140.601C80.5017 138.053 80.5017 132.67 80.5017 129.017C80.5017 128.008 80.79 127.527 81.0783 127.239C82.1852 126.278 83.9658 125.605 85.5534 125.605C87.0931 125.605 88.103 126.085 88.8731 126.71C89.9316 127.575 90.2684 128.825 90.4128 129.738C90.6532 131.805 90.5572 135.89 90.5572 139.447C90.5572 141.37 90.4128 141.85 89.6917 142.09C89.3544 142.235 88.4883 142.427 87.4779 142.523C87.1411 142.86 87.2375 144.35 87.4779 144.686C88.8731 144.686 90.5093 144.542 92.915 144.542C95.8978 144.542 97.8228 144.686 98.5929 144.686C98.8327 144.398 98.9292 143.004 98.7368 142.619V142.619ZM112.065 124.259C109.515 124.259 107.927 126.23 107.927 129.305C107.927 132.43 109.322 136.035 113.267 136.035C113.941 136.035 115.192 135.746 115.769 135.073C116.684 134.209 117.309 132.478 117.309 130.651C117.309 126.662 115.336 124.259 112.065 124.259V124.259ZM111.728 145.503C110.766 145.503 110.092 145.791 109.659 146.032C107.638 147.329 106.724 148.579 106.724 150.07C106.724 151.463 107.253 152.568 108.408 153.53C109.803 154.731 111.728 155.308 114.181 155.308C119.089 155.308 121.255 152.665 121.255 150.07C121.255 148.243 120.34 147.041 118.464 146.369C117.117 145.791 114.663 145.503 111.728 145.503V145.503ZM112.065 158C109.13 158 107.012 157.375 105.184 155.981C103.404 154.635 102.634 152.617 102.634 151.223C102.634 150.838 102.731 149.781 103.597 148.82C104.125 148.243 105.281 147.137 108.023 145.263C108.119 145.215 108.167 145.167 108.167 145.07C108.167 144.974 108.071 144.878 107.975 144.831C105.714 143.965 105.04 142.571 104.847 141.802V141.706C104.8 141.417 104.703 141.129 105.136 140.841C105.473 140.601 105.954 140.312 106.483 139.976C107.301 139.495 108.167 138.966 108.696 138.534C108.793 138.438 108.793 138.342 108.793 138.246C108.793 138.149 108.696 138.053 108.6 138.005C105.233 136.9 103.549 134.4 103.549 130.651C103.549 128.2 104.655 125.989 106.628 124.595C107.975 123.538 111.343 122.24 113.556 122.24H113.701C115.962 122.288 117.213 122.769 118.993 123.394C119.955 123.73 120.87 123.874 122.121 123.874C123.997 123.874 124.815 123.297 125.488 122.625C125.537 122.721 125.633 122.961 125.681 123.586C125.729 124.211 125.537 125.124 125.056 125.797C124.671 126.326 123.805 126.71 122.939 126.71H122.698C121.832 126.614 121.446 126.518 121.446 126.518L121.255 126.614C121.207 126.71 121.255 126.806 121.303 126.951L121.351 127.047C121.447 127.479 121.639 128.777 121.639 129.114C121.639 133.055 120.052 134.785 118.368 136.082C116.732 137.284 114.856 138.053 112.738 138.246C112.69 138.246 112.498 138.246 112.065 138.293C111.824 138.293 111.487 138.342 111.439 138.342H111.391C111.006 138.438 110.044 138.918 110.044 139.735C110.044 140.456 110.477 141.322 112.546 141.466C112.979 141.514 113.411 141.514 113.893 141.562C116.636 141.754 120.052 141.995 121.639 142.523C123.853 143.34 125.248 145.311 125.248 147.666C125.248 151.223 122.698 154.54 118.464 156.606C116.395 157.519 114.326 158 112.065 158V158ZM139.49 124.5C138.48 124.5 137.565 124.739 136.892 125.22C135.016 126.373 134.053 128.681 134.053 132.045C134.053 138.342 137.228 142.764 141.752 142.764C143.099 142.764 144.157 142.379 145.071 141.61C146.466 140.456 147.189 138.149 147.189 134.929C147.189 128.681 144.061 124.499 139.49 124.499L139.49 124.5ZM140.356 145.071C132.177 145.071 129.242 139.063 129.242 133.439C129.242 129.498 130.829 126.47 134.005 124.307C136.266 122.913 138.961 122.144 141.367 122.144C147.621 122.144 152 126.614 152 133.055C152 137.428 150.268 140.889 146.948 143.004C145.36 144.061 142.618 145.071 140.356 145.071H140.356V145.071ZM54.6157 124.499C53.6052 124.499 52.6912 124.739 52.0171 125.22C50.1411 126.373 49.1786 128.681 49.1786 132.045C49.1786 138.342 52.3539 142.764 56.8769 142.764C58.2242 142.764 59.2826 142.379 60.1972 141.61C61.5919 140.456 62.314 138.149 62.314 134.929C62.314 128.681 59.2347 124.499 54.6157 124.499ZM55.4817 145.071C47.3021 145.071 44.3672 139.063 44.3672 133.439C44.3672 129.498 45.9548 126.47 49.1301 124.307C51.3919 122.913 54.0865 122.144 56.4922 122.144C62.7473 122.144 67.1254 126.614 67.1254 133.055C67.1254 137.428 65.3933 140.889 62.0731 143.004C60.5335 144.061 57.7909 145.071 55.4817 145.071ZM0.486441 144.59C0.389984 144.446 0.293526 144.013 0.342016 143.485C0.342016 143.1 0.438473 142.86 0.486441 142.764C1.4969 142.619 2.02611 142.475 2.60329 142.331C3.56577 142.09 3.95056 141.562 3.99853 140.361C4.14348 137.477 4.14348 131.997 4.09499 128.2V128.104C4.09499 127.671 4.09499 127.142 3.56577 126.758C2.79568 126.278 1.88168 125.845 0.678832 125.508C0.246078 125.365 -0.0427726 125.124 0.00519539 124.836C0.00519539 124.547 0.294049 124.211 0.919718 124.115C2.50735 123.97 6.64459 122.961 8.28071 122.24C8.37717 122.336 8.52159 122.625 8.52159 123.009L8.47363 123.538C8.42514 124.067 8.37717 124.692 8.37717 125.316C8.37717 125.508 8.57008 125.653 8.76196 125.653C8.85841 125.653 8.95487 125.605 9.0508 125.556C12.1301 123.153 14.9206 122.288 16.3638 122.288C18.7221 122.288 20.5506 123.394 21.9458 125.701C22.0418 125.845 22.1382 125.893 22.2827 125.893C22.3786 125.893 22.5225 125.845 22.571 125.749C25.41 123.586 28.2489 122.288 30.1249 122.288C34.5995 122.288 37.2461 125.605 37.2461 131.228C37.2461 132.814 37.2461 134.881 37.1981 136.756C37.1981 138.438 37.1501 139.976 37.1501 141.082C37.1501 141.321 37.4864 142.09 38.0156 142.235C38.6893 142.571 39.6038 142.715 40.8066 142.908H40.8546C40.9511 143.244 40.7587 144.494 40.5663 144.734C40.2774 144.734 39.8441 144.734 39.3634 144.686C38.1454 144.623 36.926 144.591 35.7064 144.59C32.7235 144.59 31.1838 144.638 29.6916 144.734C29.5962 144.35 29.5477 143.196 29.6916 142.908C30.5582 142.764 30.9909 142.619 31.5207 142.475C32.4831 142.187 32.7235 141.754 32.772 140.504C32.772 139.591 32.9639 131.805 32.675 129.93C32.3867 128.008 30.943 125.749 27.7672 125.749C26.5643 125.749 24.6884 126.23 22.8598 127.623C22.7639 127.719 22.6669 127.959 22.6669 128.104V128.152C22.8598 129.161 22.8598 130.315 22.8598 132.093V135.217C22.8598 137.38 22.8113 139.399 22.8598 140.937C22.8598 141.995 23.4855 142.235 24.0147 142.427C24.3036 142.475 24.4954 142.523 24.7363 142.571C25.1691 142.667 25.6024 142.764 26.276 142.908C26.3725 143.1 26.3724 143.725 26.228 144.253C26.1795 144.542 26.0831 144.686 26.0351 144.734C24.3995 144.686 22.7154 144.638 20.2618 144.638C19.5401 144.638 18.2888 144.686 17.2304 144.686C16.3638 144.686 15.5463 144.734 15.0656 144.734C15.0171 144.638 14.9206 144.302 14.9206 143.773C14.9206 143.34 15.0171 143.004 15.1135 142.908C15.3539 142.86 15.5463 142.812 15.7872 142.812C16.3638 142.715 16.8456 142.619 17.3263 142.523C18.1449 142.283 18.4332 141.85 18.4812 140.793C18.6256 138.39 18.7701 131.517 18.4332 129.786C17.8561 126.999 16.2684 125.605 13.7178 125.605C12.2266 125.605 10.3496 126.326 8.81044 127.48C8.56956 127.671 8.37717 128.152 8.37717 128.584V131.42C8.37717 134.881 8.37717 139.207 8.42514 141.082C8.47363 141.658 8.6655 142.331 9.77241 142.571C10.0133 142.619 10.3981 142.715 10.8793 142.764L11.7448 142.908C11.8418 143.196 11.7933 144.35 11.6009 144.734C11.1197 144.734 10.5425 144.686 9.86834 144.686C8.85841 144.638 7.55911 144.59 6.1159 144.59C4.4318 144.59 3.22896 144.638 2.26647 144.686C1.59283 144.59 1.06362 144.59 0.486441 144.59V144.59Z" fill="white"/>
<path d="M111.5 101.25L111.012 102.668L111.5 102.836L111.988 102.668L111.5 101.25ZM111.5 101.25C111.988 102.668 111.989 102.668 111.99 102.668L111.993 102.667L112.002 102.663L112.032 102.653C112.057 102.644 112.092 102.632 112.137 102.615C112.228 102.582 112.36 102.534 112.529 102.469C112.866 102.34 113.355 102.146 113.973 101.883C115.208 101.357 116.963 100.553 119.062 99.4309C123.259 97.1887 128.853 93.6696 134.449 88.5549C145.665 78.3052 156.875 61.6541 156.875 36.1687C156.875 31.6432 156.585 27.3865 156.342 23.8062C156.268 22.7119 156.197 21.6807 156.141 20.7244L156.138 20.6753L156.132 20.6264C155.332 14.2232 150.795 8.56423 144.304 6.93148C136.415 4.71436 124.34 2.25 111.5 2.25C98.665 2.25 86.5906 4.71236 78.9333 6.93304C72.4645 8.56245 67.9112 13.9631 67.1107 20.6338L67.1103 20.6372C66.6192 24.811 66.125 29.9937 66.125 36.1687C66.125 61.6541 77.335 78.3052 88.5506 88.5549C94.1472 93.6696 99.7408 97.1887 103.938 99.4309C106.037 100.553 107.792 101.357 109.027 101.883C109.645 102.146 110.134 102.34 110.471 102.469C110.64 102.534 110.772 102.582 110.863 102.615C110.908 102.632 110.943 102.644 110.968 102.653L110.998 102.663L111.007 102.667L111.01 102.668C111.011 102.668 111.012 102.668 111.5 101.25Z" fill="#5D4037" stroke="white" stroke-width="3"/>
<path d="M111.5 101.25L111.012 102.668L111.5 102.836L111.988 102.668L111.5 101.25ZM111.5 101.25C111.988 102.668 111.989 102.668 111.99 102.668L111.993 102.667L112.002 102.663L112.032 102.653C112.057 102.644 112.092 102.632 112.137 102.615C112.228 102.582 112.36 102.534 112.529 102.469C112.866 102.34 113.355 102.146 113.973 101.883C115.208 101.357 116.963 100.553 119.062 99.4309C123.259 97.1887 128.853 93.6696 134.449 88.5549C145.665 78.3052 156.875 61.6541 156.875 36.1687C156.875 29.9937 156.381 24.811 155.89 20.6372L155.889 20.6338C155.089 13.9631 150.535 8.56245 144.067 6.93304C136.409 4.71236 124.335 2.25 111.5 2.25C98.6559 2.25 86.5772 4.71587 78.6885 6.93351C72.4898 8.5572 67.6588 14.1849 67.1074 20.6619C66.6171 24.8344 66.125 30.2504 66.125 36.1687C66.125 61.6541 77.335 78.3052 88.5506 88.5549C94.1472 93.6696 99.7408 97.1887 103.938 99.4309C106.037 100.553 107.792 101.357 109.027 101.883C109.645 102.146 110.134 102.34 110.471 102.469C110.64 102.534 110.772 102.582 110.863 102.615C110.908 102.632 110.943 102.644 110.968 102.653L110.998 102.663L111.007 102.667L111.01 102.668C111.011 102.668 111.012 102.668 111.5 101.25ZM141.582 16.8994L141.594 16.9024L141.605 16.9052C143.834 17.4626 145.423 19.3189 145.843 21.9815C146.322 26.5459 146.562 31.3554 146.562 36.1687C146.562 72.4251 120.494 87.5504 111.518 91.5609C102.508 87.3138 76.4375 72.1907 76.4375 36.1687C76.4375 31.3424 76.6789 26.52 77.1605 21.9445L77.1627 21.9236L77.1643 21.9025C77.3568 19.401 79.0733 17.4857 81.3951 16.9052L81.4064 16.9024L81.4177 16.8994C88.6741 14.9643 99.7434 12.5625 111.5 12.5625C123.257 12.5625 134.326 14.9643 141.582 16.8994Z" fill="#4CAF50" stroke="white" stroke-width="3"/>
<path d="M109.062 60.75H107.562V62.25V81.75V83.25H109.062H113.937H115.437V81.75V62.25V60.75H113.937H109.062Z" fill="#DCEDC8" stroke="white" stroke-width="3"/>
<path d="M111.5 18.375L112.46 17.2227L111.5 16.4224L110.54 17.2227L111.5 18.375ZM111.5 18.375C110.54 17.2227 110.539 17.2231 110.539 17.2235L110.537 17.2247L110.534 17.2279L110.522 17.2376L110.483 17.2704C110.451 17.2982 110.405 17.3379 110.346 17.3893C110.229 17.4922 110.062 17.642 109.851 17.8376C109.43 18.2287 108.835 18.8034 108.126 19.5524C106.708 21.0491 104.823 23.2482 102.939 26.0742C99.1753 31.7204 95.375 39.9288 95.375 50.0625C95.375 63.4174 103.856 71.8441 108.07 75.5623L109.769 77.0613L110.486 74.9118L111.5 71.8684L112.514 74.9118L113.231 77.0613L114.93 75.5623C119.144 71.8441 127.625 63.4174 127.625 50.0625C127.625 39.9288 123.825 31.7204 120.061 26.0742C118.177 23.2482 116.292 21.0491 114.874 19.5524C114.165 18.8034 113.57 18.2287 113.149 17.8376C112.938 17.642 112.771 17.4922 112.654 17.3893C112.595 17.3379 112.549 17.2982 112.517 17.2704L112.478 17.2376L112.466 17.2279L112.463 17.2247L112.461 17.2235C112.461 17.2231 112.46 17.2227 111.5 18.375Z" fill="#4CAF50" stroke="white" stroke-width="3"/>
<path d="M113 18.375V15.1724L110.54 17.2227L111.5 18.375C110.54 17.2227 110.539 17.2231 110.539 17.2235L110.537 17.2247L110.534 17.2279L110.522 17.2376L110.483 17.2704C110.451 17.2982 110.405 17.3379 110.346 17.3893C110.229 17.4922 110.062 17.642 109.851 17.8376C109.43 18.2287 108.835 18.8034 108.126 19.5524C106.708 21.0491 104.823 23.2482 102.939 26.0742C99.1753 31.7204 95.375 39.9288 95.375 50.0625C95.375 63.4174 103.856 71.8441 108.07 75.5623L109.769 77.0613L110.486 74.9118L112.923 67.5993L113 67.3684V67.125V18.375Z" fill="#81C784" stroke="white" stroke-width="3"/>
<path d="M155.375 36.1687C155.375 86.1375 111.5 101.25 111.5 101.25C111.5 101.25 67.625 86.1375 67.625 36.1687C67.625 30.075 68.1125 24.9563 68.6 20.8125C69.3313 14.7188 73.475 9.84375 79.325 8.38125C86.8813 6.1875 98.825 3.75 111.5 3.75C124.175 3.75 136.119 6.1875 143.919 8.38125C149.769 9.84375 153.913 14.9625 154.644 20.8125C154.888 24.9563 155.375 30.3187 155.375 36.1687Z" fill="#5D4037"/>
<path d="M111.5 11.0625C123.444 11.0625 134.656 13.5 141.969 15.45C144.894 16.1813 146.844 18.6187 147.331 21.7875C147.819 26.4187 148.062 31.2937 148.062 36.1687C148.062 74.1937 120.031 89.55 111.5 93.2063C102.969 89.3063 74.9375 73.95 74.9375 36.1687C74.9375 31.2937 75.1813 26.4187 75.6688 21.7875C75.9125 18.6187 78.1062 16.1813 81.0312 15.45C88.3438 13.5 99.5562 11.0625 111.5 11.0625ZM111.5 3.75C98.825 3.75 86.8812 6.1875 79.0812 8.38125C73.475 9.84375 69.0875 14.9625 68.6 20.8125C68.1125 24.9563 67.625 30.3187 67.625 36.1687C67.625 86.1375 111.5 101.25 111.5 101.25C111.5 101.25 155.375 86.1375 155.375 36.1687C155.375 30.075 154.887 24.9563 154.4 20.8125C153.669 14.7188 149.525 9.84375 143.675 8.38125C136.119 6.1875 124.175 3.75 111.5 3.75Z" fill="#4CAF50"/>
<path d="M109.062 62.25H113.937V81.75H109.062V62.25Z" fill="#DCEDC8"/>
<path d="M111.5 18.375C111.5 18.375 96.875 30.5625 96.875 50.0625C96.875 62.7375 104.919 70.7812 109.062 74.4375L111.5 67.125L113.938 74.4375C118.081 70.7812 126.125 62.7375 126.125 50.0625C126.125 30.5625 111.5 18.375 111.5 18.375Z" fill="#4CAF50"/>
<path d="M111.5 18.375C111.5 18.375 96.875 30.5625 96.875 50.0625C96.875 62.7375 104.919 70.7812 109.062 74.4375L111.5 67.125V18.375Z" fill="#81C784"/>
</svg>
