<svg width="204" height="162" viewBox="0 0 204 162" fill="none" xmlns="http://www.w3.org/2000/svg">
<mask id="path-1-outside-1" maskUnits="userSpaceOnUse" x="43.1984" y="0.831177" width="118" height="124" fill="black">
<rect fill="white" x="43.1984" y="0.831177" width="118" height="124"/>
<path fill-rule="evenodd" clip-rule="evenodd" d="M140.932 62.4577L156.802 44.653L133.499 39.5729L135.874 15.8397L114.035 25.4256L101.999 4.83118L89.972 25.4236L68.1366 15.8315L70.5058 39.5646L47.201 44.6406L63.0678 62.4495L47.1984 80.2542L70.5007 85.3344L68.1269 109.066L89.9653 99.4806L102 120.075L114.027 99.4837L135.864 109.075L133.495 85.3415L156.799 80.2655L140.932 62.4577ZM148.63 75.8517L134.884 71.1499L125.764 59.2963L137.895 63.8032L148.63 75.8517ZM111.802 97.0229L103.581 111.098V96.1729L112.126 83.7041L111.802 97.0229ZM97.4015 38.6675L83.2555 33.637L74.7915 22.2093L89.6265 28.7257L97.4015 38.6675ZM114.38 28.7287L129.214 22.2165L120.745 33.637L106.602 38.6661L114.38 28.7287ZM130.254 40.2457L122.877 50.7068L123.295 35.5072L131.887 23.921L130.254 40.2457ZM102 92.8861L92.102 78.4448L102 65.0146L111.897 78.4448L102 92.8861ZM84.3972 54.7497L83.9155 37.2278L100.418 43.0963V60.1479L84.3972 54.7497ZM103.581 43.0963L120.084 37.2278L119.602 54.7497L103.581 60.1479V43.0963ZM73.7514 40.2394L72.1218 23.9181L80.7046 35.5063L81.1224 50.7025L73.7514 40.2394ZM99.4411 63.1565L89.5471 76.5817L72.7386 71.6267L83.4117 57.7555L99.4411 63.1565ZM91.871 83.7011L100.419 96.1729V111.101L92.1905 97.0202L91.871 83.7011ZM104.558 63.1565L120.588 57.7555L131.261 71.6267L114.452 76.5817L104.558 63.1565ZM150.839 46.5904L138.353 60.5994L123.628 55.1291L132.474 42.5856L150.839 46.5904ZM102 11.1003L111.473 27.311L102 39.4146L92.5332 27.3094L102 11.1003ZM53.1633 46.578L71.531 42.5787L80.3717 55.1282L65.6483 60.5913L53.1633 46.578ZM66.1044 63.7952L78.2385 59.2927L69.1171 71.1484L55.3651 75.8438L66.1044 63.7952ZM56.06 78.9491L70.114 74.1506L84.752 78.4653L72.1396 82.4554L56.06 78.9491ZM73.6838 85.2829L88.6323 80.5537L89.0135 96.4438L71.8122 103.996L73.6838 85.2829ZM114.979 96.4476L115.366 80.5544L130.312 85.2887L132.18 104.002L114.979 96.4476ZM131.856 82.4612L119.244 78.4661L133.887 74.1503L147.943 78.9582L131.856 82.4612Z"/>
</mask>
<path fill-rule="evenodd" clip-rule="evenodd" d="M140.932 62.4577L156.802 44.653L133.499 39.5729L135.874 15.8397L114.035 25.4256L101.999 4.83118L89.972 25.4236L68.1366 15.8315L70.5058 39.5646L47.201 44.6406L63.0678 62.4495L47.1984 80.2542L70.5007 85.3344L68.1269 109.066L89.9653 99.4806L102 120.075L114.027 99.4837L135.864 109.075L133.495 85.3415L156.799 80.2655L140.932 62.4577ZM148.63 75.8517L134.884 71.1499L125.764 59.2963L137.895 63.8032L148.63 75.8517ZM111.802 97.0229L103.581 111.098V96.1729L112.126 83.7041L111.802 97.0229ZM97.4015 38.6675L83.2555 33.637L74.7915 22.2093L89.6265 28.7257L97.4015 38.6675ZM114.38 28.7287L129.214 22.2165L120.745 33.637L106.602 38.6661L114.38 28.7287ZM130.254 40.2457L122.877 50.7068L123.295 35.5072L131.887 23.921L130.254 40.2457ZM102 92.8861L92.102 78.4448L102 65.0146L111.897 78.4448L102 92.8861ZM84.3972 54.7497L83.9155 37.2278L100.418 43.0963V60.1479L84.3972 54.7497ZM103.581 43.0963L120.084 37.2278L119.602 54.7497L103.581 60.1479V43.0963ZM73.7514 40.2394L72.1218 23.9181L80.7046 35.5063L81.1224 50.7025L73.7514 40.2394ZM99.4411 63.1565L89.5471 76.5817L72.7386 71.6267L83.4117 57.7555L99.4411 63.1565ZM91.871 83.7011L100.419 96.1729V111.101L92.1905 97.0202L91.871 83.7011ZM104.558 63.1565L120.588 57.7555L131.261 71.6267L114.452 76.5817L104.558 63.1565ZM150.839 46.5904L138.353 60.5994L123.628 55.1291L132.474 42.5856L150.839 46.5904ZM102 11.1003L111.473 27.311L102 39.4146L92.5332 27.3094L102 11.1003ZM53.1633 46.578L71.531 42.5787L80.3717 55.1282L65.6483 60.5913L53.1633 46.578ZM66.1044 63.7952L78.2385 59.2927L69.1171 71.1484L55.3651 75.8438L66.1044 63.7952ZM56.06 78.9491L70.114 74.1506L84.752 78.4653L72.1396 82.4554L56.06 78.9491ZM73.6838 85.2829L88.6323 80.5537L89.0135 96.4438L71.8122 103.996L73.6838 85.2829ZM114.979 96.4476L115.366 80.5544L130.312 85.2887L132.18 104.002L114.979 96.4476ZM131.856 82.4612L119.244 78.4661L133.887 74.1503L147.943 78.9582L131.856 82.4612Z" fill="#DD1100"/>
<path fill-rule="evenodd" clip-rule="evenodd" d="M140.932 62.4577L156.802 44.653L133.499 39.5729L135.874 15.8397L114.035 25.4256L101.999 4.83118L89.972 25.4236L68.1366 15.8315L70.5058 39.5646L47.201 44.6406L63.0678 62.4495L47.1984 80.2542L70.5007 85.3344L68.1269 109.066L89.9653 99.4806L102 120.075L114.027 99.4837L135.864 109.075L133.495 85.3415L156.799 80.2655L140.932 62.4577ZM148.63 75.8517L134.884 71.1499L125.764 59.2963L137.895 63.8032L148.63 75.8517ZM111.802 97.0229L103.581 111.098V96.1729L112.126 83.7041L111.802 97.0229ZM97.4015 38.6675L83.2555 33.637L74.7915 22.2093L89.6265 28.7257L97.4015 38.6675ZM114.38 28.7287L129.214 22.2165L120.745 33.637L106.602 38.6661L114.38 28.7287ZM130.254 40.2457L122.877 50.7068L123.295 35.5072L131.887 23.921L130.254 40.2457ZM102 92.8861L92.102 78.4448L102 65.0146L111.897 78.4448L102 92.8861ZM84.3972 54.7497L83.9155 37.2278L100.418 43.0963V60.1479L84.3972 54.7497ZM103.581 43.0963L120.084 37.2278L119.602 54.7497L103.581 60.1479V43.0963ZM73.7514 40.2394L72.1218 23.9181L80.7046 35.5063L81.1224 50.7025L73.7514 40.2394ZM99.4411 63.1565L89.5471 76.5817L72.7386 71.6267L83.4117 57.7555L99.4411 63.1565ZM91.871 83.7011L100.419 96.1729V111.101L92.1905 97.0202L91.871 83.7011ZM104.558 63.1565L120.588 57.7555L131.261 71.6267L114.452 76.5817L104.558 63.1565ZM150.839 46.5904L138.353 60.5994L123.628 55.1291L132.474 42.5856L150.839 46.5904ZM102 11.1003L111.473 27.311L102 39.4146L92.5332 27.3094L102 11.1003ZM53.1633 46.578L71.531 42.5787L80.3717 55.1282L65.6483 60.5913L53.1633 46.578ZM66.1044 63.7952L78.2385 59.2927L69.1171 71.1484L55.3651 75.8438L66.1044 63.7952ZM56.06 78.9491L70.114 74.1506L84.752 78.4653L72.1396 82.4554L56.06 78.9491ZM73.6838 85.2829L88.6323 80.5537L89.0135 96.4438L71.8122 103.996L73.6838 85.2829ZM114.979 96.4476L115.366 80.5544L130.312 85.2887L132.18 104.002L114.979 96.4476ZM131.856 82.4612L119.244 78.4661L133.887 74.1503L147.943 78.9582L131.856 82.4612Z" stroke="white" stroke-width="4" mask="url(#path-1-outside-1)"/>
<path d="M3 131.186H1.78495L2.01868 132.378L7.21896 158.908L7.37727 159.716H8.20028H16.0551H16.7936L17.0109 159.01L21.1376 145.599L25.1692 159.004L25.3834 159.716H26.1269H33.6142H34.4267L34.593 158.92L40.1409 132.391L40.3928 131.186H39.1621H32.6772H31.8429L31.6934 132.007L29.1359 146.045L24.7266 131.889L24.5078 131.186H23.7719H17.7707H17.0027L16.8046 131.928L13.2243 145.339L10.8086 132.008L10.6597 131.186H9.82461H3ZM201 159.716H202.215L201.981 158.523L196.781 131.994L196.622 131.186H195.799H187.948H187.209L186.992 131.892L182.861 145.314L178.83 131.898L178.616 131.186H177.872H170.386H169.573L169.407 131.981L164.17 157.02L154.581 131.826L154.336 131.182H153.646H145.085H144.392L144.148 131.831L134.841 156.653L132.9 151.161L132.892 151.139L132.884 151.117C132.605 150.433 132.381 149.807 132.171 149.218C132.14 149.133 132.11 149.048 132.08 148.964C131.848 148.317 131.618 147.692 131.347 147.142C131.113 146.666 130.833 146.213 130.462 145.818C131.418 145.33 132.213 144.67 132.827 143.839C133.822 142.493 134.271 140.794 134.271 138.874C134.271 136.274 133.172 134.297 131.378 133.005C129.625 131.742 127.285 131.182 124.823 131.182H112.361H111.361V132.182V158.71V159.71H112.361H119.342H120.342V158.71V149.222H120.809C121.389 149.222 121.798 149.288 122.115 149.407C122.415 149.521 122.678 149.702 122.941 150.011C123.518 150.69 124.051 151.922 124.773 154.223C124.773 154.223 124.773 154.224 124.773 154.224L126.272 159.009L126.492 159.71H127.226L133.694 159.71H135.137H142.234H142.933L143.173 159.053L144.999 154.051H153.42L155.14 159.036L155.372 159.71H156.085H163.608L163.606 159.716H164.837H171.324H172.157L172.307 158.896L174.881 144.86L179.272 159.012L179.49 159.716H180.227H186.23H186.998L187.196 158.973L190.78 145.515L193.191 158.893L193.339 159.716H194.175H201ZM70.4995 131.182H69.4995V132.182V158.71V159.71H70.4995H88.2942H89.2942V158.71V153.468V152.468H88.2942H78.4829V132.182V131.182H77.4829H70.4995ZM91.1848 131.182H90.1848V132.182L90.1848 158.71V159.71H91.1848H98.1658H99.1658V158.71V149.031H108.26H109.26V148.031V143.017V142.017H108.26H99.1658V138.2H108.71H109.71V137.2V132.182V131.182H108.71H91.1848ZM67.5951 145.45C67.5951 141.026 66.4236 137.32 63.9949 134.714C61.5557 132.097 57.9774 130.727 53.4549 130.727C48.9337 130.727 45.3563 132.097 42.9177 134.714C40.4895 137.32 39.3182 141.026 39.3182 145.45C39.3182 149.842 40.5115 153.544 42.9462 156.156C45.3908 158.777 48.9654 160.169 53.4549 160.169C57.9461 160.169 61.5215 158.777 63.9667 156.156C66.4019 153.545 67.5951 149.842 67.5951 145.45ZM58.3858 145.45C58.3858 147.53 57.9806 149.447 57.1563 150.808C56.3629 152.118 55.1859 152.924 53.4549 152.924C51.7245 152.924 50.5474 152.118 49.7538 150.808C48.9294 149.447 48.524 147.53 48.524 145.45C48.524 143.246 48.9322 141.336 49.7496 140.01C50.5312 138.743 51.7015 137.973 53.4549 137.973C55.2088 137.973 56.3791 138.743 57.1605 140.01C57.9778 141.335 58.3858 143.246 58.3858 145.45ZM121.185 142.208H120.342V138.2H121.185C122.498 138.2 123.59 138.32 124.326 138.65C124.676 138.807 124.902 138.993 125.044 139.198C125.182 139.397 125.289 139.682 125.289 140.127C125.289 140.715 125.151 141.071 124.99 141.3C124.826 141.532 124.578 141.719 124.211 141.864C123.425 142.176 122.347 142.208 121.185 142.208ZM151.136 147.031H147.292L149.292 140.889L151.136 147.031Z" fill="#333333" stroke="white" stroke-width="2"/>
</svg>
