<svg xmlns="http://www.w3.org/2000/svg" viewBox="0 0 349.03 302.19"><defs><style>.cls-1{fill:#845c2c;}.cls-2{fill:#33312d;}.cls-3{fill:#4c4a45;}.cls-4{fill:#5e5a51;}.cls-5{fill:#4f361f;}.cls-6{fill:#684825;}.cls-7{fill:#e8524b;}.cls-8{fill:#ea8e49;}.cls-9{fill:#eda948;}.cls-10{fill:#eac049;}</style></defs><g id="Layer_2" data-name="Layer 2"><g id="Layer_2-2" data-name="Layer 2"><ellipse class="cls-1" cx="174.69" cy="220.14" rx="145.78" ry="50.39"/><ellipse class="cls-1" cx="58.12" cy="179.85" rx="44.29" ry="26.57" transform="translate(-75.94 46.61) rotate(-27.27)"/><ellipse class="cls-1" cx="23.3" cy="225.08" rx="21.31" ry="28.44" transform="translate(-109.42 41.8) rotate(-30)"/><ellipse class="cls-1" cx="240.91" cy="168.85" rx="25.7" ry="41.47" transform="translate(43.75 387.21) rotate(-82.95)"/><ellipse class="cls-1" cx="34.67" cy="255.12" rx="24.21" ry="16.12" transform="translate(-42.9 9.62) rotate(-9.8)"/><ellipse class="cls-1" cx="304.49" cy="184.24" rx="25.7" ry="34.16" transform="translate(84.25 463.8) rotate(-82.95)"/><ellipse class="cls-1" cx="116.99" cy="166.85" rx="33.42" ry="24.54" transform="translate(-21.24 17.13) rotate(-7.68)"/><ellipse class="cls-1" cx="180.45" cy="164.61" rx="28.71" ry="37.98" transform="translate(-27.8 292.24) rotate(-73.87)"/><rect class="cls-1" x="154.56" y="95.23" width="28.05" height="147.25" rx="10.03" transform="translate(-64.79 119.18) rotate(-33.03)"/><rect class="cls-1" x="49.22" y="165.83" width="125.2" height="28.05" rx="8.88" transform="translate(-98.14 152.12) rotate(-50.6)"/><path class="cls-1" d="M142,127.19h0a7.9,7.9,0,0,1,5,1.79l8,6.54A7.88,7.88,0,0,1,156,146.6l-68.19,83a7.89,7.89,0,0,1-11.09,1.08l-8-6.53a7.88,7.88,0,0,1-1.09-11.09l68.19-83a7.88,7.88,0,0,1,6.1-2.88m0-1a8.87,8.87,0,0,0-6.87,3.25l-68.19,83A8.88,8.88,0,0,0,68.11,225l8,6.54a8.89,8.89,0,0,0,12.49-1.23l68.2-83a8.89,8.89,0,0,0-1.23-12.5l-7.95-6.53a8.85,8.85,0,0,0-5.63-2Z"/><rect class="cls-1" x="194.29" y="61.91" width="28.05" height="206.72" rx="11.36" transform="translate(-57.23 179.18) rotate(-41.42)"/><path class="cls-1" d="M149.44,84.17h0a10.38,10.38,0,0,1,7.77,3.5L279,225.64a10.35,10.35,0,0,1-.92,14.62l-4,3.52a10.34,10.34,0,0,1-14.62-.91l-121.74-138a10.37,10.37,0,0,1,.92-14.63l4-3.52a10.33,10.33,0,0,1,6.85-2.59m0-1A11.33,11.33,0,0,0,141.92,86l-4,3.52a11.37,11.37,0,0,0-1,16l121.74,138a11.35,11.35,0,0,0,16,1l4-3.52a11.37,11.37,0,0,0,1-16L158,87a11.33,11.33,0,0,0-8.52-3.84Z"/><rect class="cls-1" x="45.51" y="154.83" width="198.32" height="28.05" rx="11.06" transform="translate(-73.9 209.71) rotate(-60)"/><path class="cls-1" d="M186.16,81h0a10.1,10.1,0,0,1,5,1.35l5.13,3A10.06,10.06,0,0,1,200,99.07l-88.1,152.59a10,10,0,0,1-13.74,3.69l-5.13-3a10.06,10.06,0,0,1-3.68-13.74L177.43,86.05a10.11,10.11,0,0,1,8.73-5m0-1a11.05,11.05,0,0,0-9.59,5.54L88.47,238.14a11.07,11.07,0,0,0,4,15.11l5.13,3a11,11,0,0,0,15.11-4l88.1-152.59a11.07,11.07,0,0,0-4.05-15.11l-5.13-3A11,11,0,0,0,186.16,80Z"/><ellipse class="cls-1" cx="86.99" cy="264.42" rx="27.11" ry="40.73" transform="translate(-188.58 303.77) rotate(-79.92)"/><rect class="cls-1" x="170.86" y="135.27" width="28.05" height="123.32" rx="8.68" transform="translate(-36.78 42.56) rotate(-11.95)"/><path class="cls-1" d="M179.15,136.31h0a7.73,7.73,0,0,1,7.51,6.1L208.6,246.06a7.7,7.7,0,0,1-5.92,9.11l-10.45,2.21a7.91,7.91,0,0,1-1.6.17,7.72,7.72,0,0,1-7.51-6.1L161.18,147.8a7.7,7.7,0,0,1,5.92-9.11l10.45-2.21a7.91,7.91,0,0,1,1.6-.17m0-1a8.63,8.63,0,0,0-1.81.19l-10.45,2.22A8.67,8.67,0,0,0,160.2,148l21.94,103.65a8.69,8.69,0,0,0,8.49,6.89,8.54,8.54,0,0,0,1.8-.19l10.45-2.21a8.69,8.69,0,0,0,6.7-10.3L187.64,142.2a8.69,8.69,0,0,0-8.49-6.89Z"/><ellipse class="cls-1" cx="318.36" cy="224.44" rx="31.55" ry="27.06" transform="translate(-67.45 170.79) rotate(-27.27)"/><ellipse class="cls-1" cx="158.77" cy="275.97" rx="23.83" ry="40.73" transform="translate(-127.87 414.56) rotate(-85.89)"/><ellipse class="cls-1" cx="248.17" cy="264.42" rx="58.32" ry="35.59" transform="translate(-62.79 77.85) rotate(-15.85)"/><path class="cls-1" d="M212.67,117c-5.61,34.25-21.83,36.69-28.86,36.69s-23.26-2.44-28.87-36.69c-5.3-32.4,28.87-117,28.87-117S218,84.64,212.67,117Z"/><path class="cls-1" d="M183.71,133c-5.61,34.25-21.83,36.69-28.86,36.69S131.59,167.23,126,133c-5.3-32.4,28.87-117,28.87-117S189,100.58,183.71,133Z"/><path class="cls-1" d="M240.92,166.9C235.43,201.55,219.53,204,212.65,204s-22.8-2.47-28.29-37.12c-5.2-32.77,28.29-118.4,28.29-118.4S246.13,134.13,240.92,166.9Z"/><path class="cls-1" d="M154.27,166.9C148.48,201.55,131.75,204,124.5,204s-24-2.47-29.78-37.12C89.26,134.13,124.5,48.5,124.5,48.5S159.74,134.13,154.27,166.9Z"/><path class="cls-1" d="M193.05,184.36c-6.08,37.1-23.65,39.75-31.27,39.75s-25.2-2.65-31.28-39.75c-5.74-35.11,31.28-126.81,31.28-126.81S198.8,149.25,193.05,184.36Z"/><ellipse class="cls-2" cx="174.69" cy="220.14" rx="145.78" ry="50.39"/><ellipse class="cls-3" cx="58.12" cy="179.85" rx="44.29" ry="26.57" transform="translate(-75.94 46.61) rotate(-27.27)"/><ellipse class="cls-4" cx="23.3" cy="225.08" rx="21.31" ry="28.44" transform="translate(-109.42 41.8) rotate(-30)"/><ellipse class="cls-3" cx="240.91" cy="168.85" rx="25.7" ry="41.47" transform="translate(43.75 387.21) rotate(-82.95)"/><ellipse class="cls-3" cx="34.67" cy="255.12" rx="24.21" ry="16.12" transform="translate(-42.9 9.62) rotate(-9.8)"/><ellipse class="cls-4" cx="304.49" cy="184.24" rx="25.7" ry="34.16" transform="translate(84.25 463.8) rotate(-82.95)"/><ellipse class="cls-3" cx="116.99" cy="166.85" rx="33.42" ry="24.54" transform="translate(-21.24 17.13) rotate(-7.68)"/><ellipse class="cls-3" cx="180.45" cy="164.61" rx="28.71" ry="37.98" transform="translate(-27.8 292.24) rotate(-73.87)"/><rect class="cls-5" x="154.56" y="95.23" width="28.05" height="147.25" rx="10.03" transform="translate(-64.79 119.18) rotate(-33.03)"/><rect class="cls-6" x="49.22" y="165.83" width="125.2" height="28.05" rx="8.88" transform="translate(-98.14 152.12) rotate(-50.6)"/><rect class="cls-6" x="194.29" y="61.91" width="28.05" height="206.72" rx="11.36" transform="translate(-57.23 179.18) rotate(-41.42)"/><rect class="cls-1" x="45.51" y="154.83" width="198.32" height="28.05" rx="11.06" transform="translate(-73.9 209.71) rotate(-60)"/><ellipse class="cls-3" cx="86.99" cy="264.42" rx="27.11" ry="40.73" transform="translate(-188.58 303.77) rotate(-79.92)"/><rect class="cls-1" x="170.86" y="135.27" width="28.05" height="123.32" rx="8.68" transform="translate(-36.78 42.56) rotate(-11.95)"/><ellipse class="cls-3" cx="318.36" cy="224.44" rx="31.55" ry="27.06" transform="translate(-67.45 170.79) rotate(-27.27)"/><ellipse class="cls-4" cx="158.77" cy="275.97" rx="23.83" ry="40.73" transform="translate(-127.87 414.56) rotate(-85.89)"/><ellipse class="cls-4" cx="248.17" cy="264.42" rx="58.32" ry="35.59" transform="translate(-62.79 77.85) rotate(-15.85)"/><path class="cls-7" d="M212.67,117c-5.61,34.25-21.83,36.69-28.86,36.69s-23.26-2.44-28.87-36.69c-5.3-32.4,28.87-117,28.87-117S218,84.64,212.67,117Z"/><path class="cls-8" d="M183.71,133c-5.61,34.25-21.83,36.69-28.86,36.69S131.59,167.23,126,133c-5.3-32.4,28.87-117,28.87-117S189,100.58,183.71,133Z"/><path class="cls-8" d="M240.92,166.9C235.43,201.55,219.53,204,212.65,204s-22.8-2.47-28.29-37.12c-5.2-32.77,28.29-118.4,28.29-118.4S246.13,134.13,240.92,166.9Z"/><path class="cls-9" d="M154.27,166.9C148.48,201.55,131.75,204,124.5,204s-24-2.47-29.78-37.12C89.26,134.13,124.5,48.5,124.5,48.5S159.74,134.13,154.27,166.9Z"/><path class="cls-10" d="M193.05,184.36c-6.08,37.1-23.65,39.75-31.27,39.75s-25.2-2.65-31.28-39.75c-5.74-35.11,31.28-126.81,31.28-126.81S198.8,149.25,193.05,184.36Z"/></g></g></svg>