<svg width="164" height="167" viewBox="0 0 164 167" fill="none" xmlns="http://www.w3.org/2000/svg">
<path d="M150.23 20.3563C159.448 31.7563 164.276 44.6483 163.451 59.4377C163.099 65.7297 161.518 71.7457 159.083 77.5337C158.499 78.919 157.868 80.2537 157.894 81.7923C156.534 82.171 156.203 83.4537 155.558 84.4577C142.848 104.211 124.291 113.754 101.258 113.732C82.2469 113.715 66.1803 105.85 54.4056 90.7097C44.4403 77.8977 41.0429 63.215 44.0829 47.1057C45.5416 39.3657 49.3616 32.667 52.7803 25.7697C52.8603 25.7003 52.9389 25.6337 53.0189 25.5643L52.8816 25.4123L52.6549 25.6297C50.9736 25.9097 50.3283 27.3817 49.4749 28.5297C41.6269 39.063 38.3389 51.0297 38.4469 64.0417C37.0029 65.379 36.3976 67.1643 35.7083 68.9417C32.9109 76.1683 33.3229 83.5497 34.6923 90.9337C37.2496 104.727 42.9283 116.658 55.2296 124.534C60.3029 127.782 66.0123 129.388 71.6936 131.086C69.3723 139.284 66.9643 147.46 64.7776 155.695C63.9669 158.754 62.5989 159.519 59.5043 158.667C44.1749 154.452 31.0403 146.679 20.8576 134.46C4.55227 114.896 0.344266 92.7657 7.52693 68.343C8.75093 64.179 11.4256 60.5723 11.8869 56.163L11.8989 56.1697L13.6763 53.7483C16.5256 49.007 20.4176 45.0697 23.7469 40.6977C32.9763 31.431 43.5936 24.335 56.0536 20.1697C58.2203 19.4457 59.7949 17.943 61.3696 16.5083C86.2643 -6.17165 126.275 -6.03566 150.23 20.3563Z" fill="#00AA94"/>
<path d="M53 26C49.58 32.8987 45.5415 39.3665 44.0829 47.1052C41.0429 63.2145 44.4402 77.8972 54.4055 90.7092C66.1802 105.851 82.2469 113.715 101.258 113.733C124.291 113.753 142.848 104.212 155.558 84.4585C156.203 83.4545 156.532 82.1705 157.894 81.7918C159.38 98.8038 154.887 114.215 145.223 128.148C139.343 136.627 132.619 144.388 124.467 150.816C124.155 151.132 123.846 151.448 123.535 151.764L123.579 151.715C123.05 151.687 122.704 151.903 122.604 152.445L122.594 152.404C121.18 153.175 119.756 153.929 118.354 154.719C88.7895 171.349 59.4522 171.3 30.8562 152.713C6.90687 137.147 -4.46779 107.833 1.61754 79.9838C3.34421 72.0812 6.85887 64.9785 10.2829 57.7918L10.2669 57.7999L11 57C11 57 11.7149 56.1172 11.8869 56.1625C11.4255 60.5718 8.75087 64.1798 7.52687 68.3425C0.344204 92.7652 4.55221 114.897 20.8575 134.46C31.0402 146.679 44.1749 154.453 59.5042 158.668C62.5989 159.519 63.9669 158.753 64.7775 155.696C66.9642 147.461 69.3722 139.285 71.6935 131.087C80.5002 131.863 89.2709 132.032 97.9895 130.077C109.927 127.401 120.079 122.068 126.718 111.317C126.804 111.217 126.912 111.129 126.968 111.015C126.983 110.983 126.822 110.804 126.787 110.817C126.667 110.86 126.568 110.959 126.462 111.036C114.532 115.792 102.438 118.743 89.3602 116.631C65.9869 112.853 49.7869 100.544 41.3335 78.2012C39.5815 73.5692 39.6762 68.7012 38.4469 64.0412C38.3389 51.0292 41.6269 39.0638 49.4749 28.5292C50.3282 27.3812 51.1002 25.6036 52.7815 25.3236L53 25.5V26Z" fill="#009985"/>
<path d="M38.4464 64.0412C39.6757 68.7012 39.5811 73.5692 41.3331 78.2012C49.7864 100.544 65.9864 112.853 89.3597 116.629C102.437 118.743 115.071 115.256 127 110.5V111C120.36 121.749 109.926 127.401 97.9891 130.077C89.2704 132.032 80.4997 131.863 71.6931 131.087C66.0117 129.388 60.3024 127.781 55.2291 124.533C42.9277 116.657 37.2491 104.728 34.6917 90.9332C33.3224 83.5492 32.9104 76.1679 35.7077 68.9412C36.3971 67.1639 37.0024 65.3786 38.4464 64.0412Z" fill="#00594D"/>
</svg>
