<svg width="126" height="142" viewBox="0 0 126 142" fill="none" xmlns="http://www.w3.org/2000/svg">
<mask id="path-1-outside-1" maskUnits="userSpaceOnUse" x="0" y="0.000976562" width="126" height="142" fill="black">
<rect fill="white" y="0.000976562" width="126" height="142"/>
<path d="M122.071 70.667C122.071 80.7063 122.074 90.7453 122.08 100.784C122.109 102.521 121.519 104.211 120.417 105.553C119.891 106.183 119.252 106.709 118.533 107.105C114.728 109.305 110.92 111.503 107.11 113.699C103.539 115.761 99.9693 117.825 96.4 119.891C92.71 122.021 89.0193 124.149 85.328 126.275C82.5093 127.902 79.691 129.53 76.873 131.16C73.5397 133.086 70.2047 135.012 66.868 136.938C66.1643 137.388 65.4093 137.753 64.619 138.024C63.6805 138.317 62.6905 138.409 61.7141 138.293C60.7376 138.177 59.7967 137.856 58.953 137.351C54.257 134.646 49.5647 131.934 44.876 129.217C40.316 126.585 35.7547 123.955 31.192 121.327C27.62 119.265 24.05 117.201 20.482 115.134C16.8073 113.012 13.1313 110.892 9.454 108.775C8.524 108.239 7.592 107.707 6.664 107.166C5.77146 106.674 4.99628 105.995 4.392 105.174C3.78772 104.354 3.36874 103.412 3.164 102.414C3.05484 101.914 2.99985 101.404 3 100.893C3 80.747 3.00433 60.6004 3.013 40.453C2.97385 39.1973 3.28382 37.9554 3.90845 36.8654C4.53307 35.7754 5.44784 34.8801 6.551 34.279C10.537 31.947 14.551 29.658 18.551 27.349C21.7103 25.5257 24.868 23.701 28.024 21.875C32.3627 19.371 36.702 16.8674 41.042 14.364C44.614 12.302 48.1833 10.238 51.75 8.17202C54.214 6.74802 56.659 5.28902 59.15 3.91202C60.1147 3.35114 61.2039 3.03918 62.3192 3.00427C63.4346 2.96935 64.5411 3.21258 65.539 3.71202C66.957 4.37902 68.273 5.24502 69.631 6.02702C73.3223 8.15168 77.012 10.2797 80.7 12.411C83.622 14.0984 86.5433 15.7864 89.464 17.475C93.1693 19.6144 96.8743 21.7517 100.579 23.887C103.723 25.7023 106.866 27.518 110.009 29.334C112.871 30.988 115.75 32.614 118.588 34.308C119.678 34.9108 120.58 35.8032 121.194 36.8866C121.809 37.97 122.111 39.2023 122.069 40.447C122.072 50.5204 122.072 60.5937 122.071 70.667ZM23.264 38.615C23.4547 38.5338 23.6645 38.5085 23.869 38.542C26.153 38.542 28.436 38.537 30.72 38.55C34.348 38.57 37.977 38.497 41.603 38.737C43.473 38.861 45.337 39.021 47.197 39.249C50.1054 39.6073 52.9923 40.1227 55.845 40.793C61.0469 41.9993 66.0917 43.8033 70.879 46.169C72.6942 47.0741 74.4613 48.0728 76.173 49.161C79.272 51.1199 82.1707 53.3791 84.827 55.906C85.753 56.786 86.643 57.706 87.507 58.647C88.9856 60.2507 90.3632 61.9447 91.632 63.719C91.7519 63.9198 91.9246 64.0838 92.1312 64.1933C92.3378 64.3028 92.5705 64.3535 92.804 64.34C99.3487 64.3227 105.894 64.319 112.439 64.329C113.239 64.329 113.239 64.329 113.239 63.504V42.182C113.239 42.029 113.239 41.875 113.239 41.722C113.242 41.6365 113.221 41.5519 113.179 41.4774C113.137 41.4029 113.075 41.3416 113 41.3C112.868 41.221 112.739 41.14 112.606 41.063C110.436 39.811 108.266 38.5597 106.096 37.309C103.425 35.767 100.755 34.2234 98.085 32.678C94.3957 30.5494 90.7057 28.4207 87.015 26.292C84.093 24.606 81.1717 22.9177 78.251 21.227L67.892 15.245C66.2693 14.3084 64.647 13.3694 63.025 12.428C62.8979 12.3316 62.7442 12.2767 62.5847 12.2708C62.4253 12.2649 62.2679 12.3083 62.134 12.395C58.2313 14.665 54.322 16.925 50.406 19.175C46.5853 21.383 42.7647 23.5913 38.944 25.8C33.3953 29.0053 27.8473 32.2087 22.3 35.41C19.023 37.301 15.752 39.2 12.465 41.074C12.2763 41.1647 12.1202 41.3114 12.0182 41.4942C11.9162 41.677 11.8731 41.8868 11.895 42.095C11.911 45.623 11.903 49.151 11.904 52.679C11.904 53.465 11.904 53.466 12.694 53.466H34.216C34.336 53.466 34.455 53.466 34.574 53.466C34.796 53.461 34.848 53.353 34.741 53.166C34.568 52.872 34.389 52.582 34.208 52.293C33.0274 50.5196 31.7295 48.8272 30.323 47.227C28.0657 44.517 25.8097 41.8067 23.555 39.096C23.4113 38.9691 23.3097 38.8013 23.264 38.615V38.615ZM22.939 102.721C23.086 102.463 23.2644 102.224 23.47 102.009C24.7087 100.536 25.9497 99.0643 27.193 97.595C28.567 95.9683 29.942 94.3424 31.318 92.717C32.4385 91.4099 33.4631 90.0237 34.384 88.569C34.484 88.416 34.679 88.25 34.591 88.075C34.484 87.865 34.223 87.963 34.03 87.963C26.906 87.9583 19.7817 87.9583 12.657 87.963C11.901 87.963 11.9 87.963 11.9 88.738C11.9 92.249 11.91 95.76 11.887 99.271C11.8667 99.4874 11.9143 99.7047 12.0233 99.8927C12.1323 100.081 12.2972 100.23 12.495 100.32C14.704 101.57 16.895 102.852 19.095 104.12L33.886 112.652C38.5793 115.36 43.273 118.068 47.967 120.776C52.601 123.451 57.2343 126.127 61.867 128.805C62.706 129.29 62.477 129.243 63.367 128.731C67.194 126.531 71.01 124.315 74.832 122.108C80.41 118.887 85.989 115.668 91.569 112.451C95.259 110.321 98.948 108.19 102.636 106.058C105.971 104.132 109.303 102.2 112.648 100.292C112.839 100.208 113 100.067 113.107 99.8876C113.215 99.7084 113.264 99.5003 113.248 99.292C113.233 92.1 113.229 84.9073 113.238 77.714C113.238 77.036 113.238 77.036 112.553 77.032H100.9C98.156 77.032 95.412 77.032 92.668 77.032C92.5012 77.0131 92.3323 77.0404 92.1799 77.1109C92.0276 77.1815 91.8975 77.2926 91.804 77.432C90.4985 79.3066 89.0616 81.0861 87.504 82.757C85.2315 85.2306 82.7445 87.4981 80.072 89.533C74.8981 93.3926 69.1542 96.422 63.047 98.512C60.2932 99.4671 57.4844 100.256 54.636 100.874C52.288 101.388 49.9213 101.796 47.536 102.097C46.184 102.265 44.83 102.397 43.473 102.524C42.065 102.651 40.653 102.764 39.243 102.775C33.977 102.817 28.71 102.803 23.443 102.808C23.27 102.833 23.0937 102.802 22.939 102.721ZM28.439 100.154C28.6478 100.217 28.8666 100.24 29.084 100.222C31.062 100.222 33.039 100.222 35.016 100.222C37.299 100.222 39.58 100.188 41.86 100.038C43.51 99.9287 45.1543 99.776 46.793 99.58C49.7711 99.2225 52.7253 98.6882 55.64 97.98C61.1696 96.6726 66.5048 94.6485 71.51 91.959C73.6973 90.771 75.8021 89.437 77.81 87.966C80.4429 86.0489 82.8872 83.8855 85.11 81.505C86.246 80.279 87.34 79.021 88.371 77.705C89.0957 76.779 89.786 75.8273 90.442 74.85C90.5128 74.7145 90.6231 74.6038 90.7583 74.5323C90.8935 74.4609 91.0472 74.4322 91.199 74.45C91.351 74.465 91.506 74.45 91.659 74.45H112.267C112.42 74.45 112.574 74.45 112.727 74.45C113.185 74.437 113.238 74.398 113.239 73.955C113.244 71.773 113.244 69.5914 113.239 67.41C113.239 66.964 113.188 66.919 112.732 66.91C111.932 66.903 111.132 66.91 110.332 66.91C103.991 66.91 97.6507 66.91 91.31 66.91C91.1354 66.9312 90.9584 66.9027 90.7992 66.8279C90.64 66.7531 90.5051 66.635 90.41 66.487C89.0523 64.4631 87.5483 62.5413 85.91 60.737C83.9273 58.5305 81.7638 56.4934 79.442 54.647C75.832 51.8076 71.8888 49.4196 67.7 47.536C64.3279 46.0124 60.8357 44.7702 57.259 43.822C52.2969 42.5148 47.2205 41.6883 42.1 41.354C40.283 41.228 38.459 41.173 36.637 41.146C34.183 41.11 31.728 41.132 29.274 41.13C29.174 41.13 29.069 41.13 28.967 41.137C28.754 41.156 28.759 41.27 28.857 41.415C28.8866 41.4566 28.9183 41.4966 28.952 41.535C29.673 42.397 30.397 43.258 31.115 44.123C32.182 45.407 33.26 46.683 34.306 47.984C35.7639 49.8111 37.0368 51.7784 38.106 53.857C38.413 54.446 38.688 55.057 38.963 55.657C39.095 55.946 39.042 56.021 38.728 56.044C38.558 56.056 38.387 56.049 38.217 56.049H12.8C12.613 56.049 12.425 56.049 12.238 56.058C12.195 56.0538 12.1517 56.0589 12.1108 56.073C12.07 56.087 12.0327 56.1097 12.0015 56.1396C11.9702 56.1694 11.9458 56.2056 11.9298 56.2457C11.9139 56.2858 11.9068 56.3289 11.909 56.372C11.902 56.525 11.899 56.679 11.899 56.832C11.899 58.7074 11.899 60.5824 11.899 62.457C11.899 63.601 11.799 63.519 12.935 63.519H40.4C40.571 63.519 40.741 63.519 40.912 63.519C41.444 63.529 41.491 63.562 41.587 64.073C41.933 65.9499 42.1299 67.8511 42.176 69.759C42.203 70.729 42.17 71.699 42.111 72.67C42.0188 74.132 41.8466 75.5879 41.595 77.031C41.435 77.957 41.406 77.838 40.623 77.838C31.401 77.838 22.1793 77.838 12.958 77.838C12.788 77.838 12.617 77.838 12.447 77.838C11.961 77.85 11.92 77.89 11.905 78.362C11.905 78.498 11.905 78.635 11.905 78.771V84.447C11.905 85.434 11.85 85.376 12.81 85.376H38.27C39.009 85.376 39.027 85.397 38.713 86.067C37.778 88.0586 36.6602 89.9591 35.374 91.744C33.796 93.93 31.974 95.914 30.255 97.987C29.67 98.7 29.075 99.4 28.437 100.154H28.439ZM25.552 75.261H38.38C38.533 75.261 38.687 75.266 38.84 75.261C39.197 75.24 39.249 75.193 39.299 74.849C39.4782 73.4988 39.5757 72.139 39.591 70.777C39.5948 69.5173 39.5281 68.2583 39.391 67.006C39.318 66.173 39.308 66.174 38.471 66.174H12.76C12.641 66.174 12.521 66.174 12.402 66.174C11.969 66.193 11.918 66.247 11.902 66.693C11.902 66.778 11.902 66.863 11.902 66.948C11.902 69.4687 11.902 71.99 11.902 74.512C11.902 75.262 11.902 75.263 12.675 75.264L25.552 75.261Z"/>
</mask>
<path d="M122.071 70.667C122.071 80.7063 122.074 90.7453 122.08 100.784C122.109 102.521 121.519 104.211 120.417 105.553C119.891 106.183 119.252 106.709 118.533 107.105C114.728 109.305 110.92 111.503 107.11 113.699C103.539 115.761 99.9693 117.825 96.4 119.891C92.71 122.021 89.0193 124.149 85.328 126.275C82.5093 127.902 79.691 129.53 76.873 131.16C73.5397 133.086 70.2047 135.012 66.868 136.938C66.1643 137.388 65.4093 137.753 64.619 138.024C63.6805 138.317 62.6905 138.409 61.7141 138.293C60.7376 138.177 59.7967 137.856 58.953 137.351C54.257 134.646 49.5647 131.934 44.876 129.217C40.316 126.585 35.7547 123.955 31.192 121.327C27.62 119.265 24.05 117.201 20.482 115.134C16.8073 113.012 13.1313 110.892 9.454 108.775C8.524 108.239 7.592 107.707 6.664 107.166C5.77146 106.674 4.99628 105.995 4.392 105.174C3.78772 104.354 3.36874 103.412 3.164 102.414C3.05484 101.914 2.99985 101.404 3 100.893C3 80.747 3.00433 60.6004 3.013 40.453C2.97385 39.1973 3.28382 37.9554 3.90845 36.8654C4.53307 35.7754 5.44784 34.8801 6.551 34.279C10.537 31.947 14.551 29.658 18.551 27.349C21.7103 25.5257 24.868 23.701 28.024 21.875C32.3627 19.371 36.702 16.8674 41.042 14.364C44.614 12.302 48.1833 10.238 51.75 8.17202C54.214 6.74802 56.659 5.28902 59.15 3.91202C60.1147 3.35114 61.2039 3.03918 62.3192 3.00427C63.4346 2.96935 64.5411 3.21258 65.539 3.71202C66.957 4.37902 68.273 5.24502 69.631 6.02702C73.3223 8.15168 77.012 10.2797 80.7 12.411C83.622 14.0984 86.5433 15.7864 89.464 17.475C93.1693 19.6144 96.8743 21.7517 100.579 23.887C103.723 25.7023 106.866 27.518 110.009 29.334C112.871 30.988 115.75 32.614 118.588 34.308C119.678 34.9108 120.58 35.8032 121.194 36.8866C121.809 37.97 122.111 39.2023 122.069 40.447C122.072 50.5204 122.072 60.5937 122.071 70.667ZM23.264 38.615C23.4547 38.5338 23.6645 38.5085 23.869 38.542C26.153 38.542 28.436 38.537 30.72 38.55C34.348 38.57 37.977 38.497 41.603 38.737C43.473 38.861 45.337 39.021 47.197 39.249C50.1054 39.6073 52.9923 40.1227 55.845 40.793C61.0469 41.9993 66.0917 43.8033 70.879 46.169C72.6942 47.0741 74.4613 48.0728 76.173 49.161C79.272 51.1199 82.1707 53.3791 84.827 55.906C85.753 56.786 86.643 57.706 87.507 58.647C88.9856 60.2507 90.3632 61.9447 91.632 63.719C91.7519 63.9198 91.9246 64.0838 92.1312 64.1933C92.3378 64.3028 92.5705 64.3535 92.804 64.34C99.3487 64.3227 105.894 64.319 112.439 64.329C113.239 64.329 113.239 64.329 113.239 63.504V42.182C113.239 42.029 113.239 41.875 113.239 41.722C113.242 41.6365 113.221 41.5519 113.179 41.4774C113.137 41.4029 113.075 41.3416 113 41.3C112.868 41.221 112.739 41.14 112.606 41.063C110.436 39.811 108.266 38.5597 106.096 37.309C103.425 35.767 100.755 34.2234 98.085 32.678C94.3957 30.5494 90.7057 28.4207 87.015 26.292C84.093 24.606 81.1717 22.9177 78.251 21.227L67.892 15.245C66.2693 14.3084 64.647 13.3694 63.025 12.428C62.8979 12.3316 62.7442 12.2767 62.5847 12.2708C62.4253 12.2649 62.2679 12.3083 62.134 12.395C58.2313 14.665 54.322 16.925 50.406 19.175C46.5853 21.383 42.7647 23.5913 38.944 25.8C33.3953 29.0053 27.8473 32.2087 22.3 35.41C19.023 37.301 15.752 39.2 12.465 41.074C12.2763 41.1647 12.1202 41.3114 12.0182 41.4942C11.9162 41.677 11.8731 41.8868 11.895 42.095C11.911 45.623 11.903 49.151 11.904 52.679C11.904 53.465 11.904 53.466 12.694 53.466H34.216C34.336 53.466 34.455 53.466 34.574 53.466C34.796 53.461 34.848 53.353 34.741 53.166C34.568 52.872 34.389 52.582 34.208 52.293C33.0274 50.5196 31.7295 48.8272 30.323 47.227C28.0657 44.517 25.8097 41.8067 23.555 39.096C23.4113 38.9691 23.3097 38.8013 23.264 38.615V38.615ZM22.939 102.721C23.086 102.463 23.2644 102.224 23.47 102.009C24.7087 100.536 25.9497 99.0643 27.193 97.595C28.567 95.9683 29.942 94.3424 31.318 92.717C32.4385 91.4099 33.4631 90.0237 34.384 88.569C34.484 88.416 34.679 88.25 34.591 88.075C34.484 87.865 34.223 87.963 34.03 87.963C26.906 87.9583 19.7817 87.9583 12.657 87.963C11.901 87.963 11.9 87.963 11.9 88.738C11.9 92.249 11.91 95.76 11.887 99.271C11.8667 99.4874 11.9143 99.7047 12.0233 99.8927C12.1323 100.081 12.2972 100.23 12.495 100.32C14.704 101.57 16.895 102.852 19.095 104.12L33.886 112.652C38.5793 115.36 43.273 118.068 47.967 120.776C52.601 123.451 57.2343 126.127 61.867 128.805C62.706 129.29 62.477 129.243 63.367 128.731C67.194 126.531 71.01 124.315 74.832 122.108C80.41 118.887 85.989 115.668 91.569 112.451C95.259 110.321 98.948 108.19 102.636 106.058C105.971 104.132 109.303 102.2 112.648 100.292C112.839 100.208 113 100.067 113.107 99.8876C113.215 99.7084 113.264 99.5003 113.248 99.292C113.233 92.1 113.229 84.9073 113.238 77.714C113.238 77.036 113.238 77.036 112.553 77.032H100.9C98.156 77.032 95.412 77.032 92.668 77.032C92.5012 77.0131 92.3323 77.0404 92.1799 77.1109C92.0276 77.1815 91.8975 77.2926 91.804 77.432C90.4985 79.3066 89.0616 81.0861 87.504 82.757C85.2315 85.2306 82.7445 87.4981 80.072 89.533C74.8981 93.3926 69.1542 96.422 63.047 98.512C60.2932 99.4671 57.4844 100.256 54.636 100.874C52.288 101.388 49.9213 101.796 47.536 102.097C46.184 102.265 44.83 102.397 43.473 102.524C42.065 102.651 40.653 102.764 39.243 102.775C33.977 102.817 28.71 102.803 23.443 102.808C23.27 102.833 23.0937 102.802 22.939 102.721ZM28.439 100.154C28.6478 100.217 28.8666 100.24 29.084 100.222C31.062 100.222 33.039 100.222 35.016 100.222C37.299 100.222 39.58 100.188 41.86 100.038C43.51 99.9287 45.1543 99.776 46.793 99.58C49.7711 99.2225 52.7253 98.6882 55.64 97.98C61.1696 96.6726 66.5048 94.6485 71.51 91.959C73.6973 90.771 75.8021 89.437 77.81 87.966C80.4429 86.0489 82.8872 83.8855 85.11 81.505C86.246 80.279 87.34 79.021 88.371 77.705C89.0957 76.779 89.786 75.8273 90.442 74.85C90.5128 74.7145 90.6231 74.6038 90.7583 74.5323C90.8935 74.4609 91.0472 74.4322 91.199 74.45C91.351 74.465 91.506 74.45 91.659 74.45H112.267C112.42 74.45 112.574 74.45 112.727 74.45C113.185 74.437 113.238 74.398 113.239 73.955C113.244 71.773 113.244 69.5914 113.239 67.41C113.239 66.964 113.188 66.919 112.732 66.91C111.932 66.903 111.132 66.91 110.332 66.91C103.991 66.91 97.6507 66.91 91.31 66.91C91.1354 66.9312 90.9584 66.9027 90.7992 66.8279C90.64 66.7531 90.5051 66.635 90.41 66.487C89.0523 64.4631 87.5483 62.5413 85.91 60.737C83.9273 58.5305 81.7638 56.4934 79.442 54.647C75.832 51.8076 71.8888 49.4196 67.7 47.536C64.3279 46.0124 60.8357 44.7702 57.259 43.822C52.2969 42.5148 47.2205 41.6883 42.1 41.354C40.283 41.228 38.459 41.173 36.637 41.146C34.183 41.11 31.728 41.132 29.274 41.13C29.174 41.13 29.069 41.13 28.967 41.137C28.754 41.156 28.759 41.27 28.857 41.415C28.8866 41.4566 28.9183 41.4966 28.952 41.535C29.673 42.397 30.397 43.258 31.115 44.123C32.182 45.407 33.26 46.683 34.306 47.984C35.7639 49.8111 37.0368 51.7784 38.106 53.857C38.413 54.446 38.688 55.057 38.963 55.657C39.095 55.946 39.042 56.021 38.728 56.044C38.558 56.056 38.387 56.049 38.217 56.049H12.8C12.613 56.049 12.425 56.049 12.238 56.058C12.195 56.0538 12.1517 56.0589 12.1108 56.073C12.07 56.087 12.0327 56.1097 12.0015 56.1396C11.9702 56.1694 11.9458 56.2056 11.9298 56.2457C11.9139 56.2858 11.9068 56.3289 11.909 56.372C11.902 56.525 11.899 56.679 11.899 56.832C11.899 58.7074 11.899 60.5824 11.899 62.457C11.899 63.601 11.799 63.519 12.935 63.519H40.4C40.571 63.519 40.741 63.519 40.912 63.519C41.444 63.529 41.491 63.562 41.587 64.073C41.933 65.9499 42.1299 67.8511 42.176 69.759C42.203 70.729 42.17 71.699 42.111 72.67C42.0188 74.132 41.8466 75.5879 41.595 77.031C41.435 77.957 41.406 77.838 40.623 77.838C31.401 77.838 22.1793 77.838 12.958 77.838C12.788 77.838 12.617 77.838 12.447 77.838C11.961 77.85 11.92 77.89 11.905 78.362C11.905 78.498 11.905 78.635 11.905 78.771V84.447C11.905 85.434 11.85 85.376 12.81 85.376H38.27C39.009 85.376 39.027 85.397 38.713 86.067C37.778 88.0586 36.6602 89.9591 35.374 91.744C33.796 93.93 31.974 95.914 30.255 97.987C29.67 98.7 29.075 99.4 28.437 100.154H28.439ZM25.552 75.261H38.38C38.533 75.261 38.687 75.266 38.84 75.261C39.197 75.24 39.249 75.193 39.299 74.849C39.4782 73.4988 39.5757 72.139 39.591 70.777C39.5948 69.5173 39.5281 68.2583 39.391 67.006C39.318 66.173 39.308 66.174 38.471 66.174H12.76C12.641 66.174 12.521 66.174 12.402 66.174C11.969 66.193 11.918 66.247 11.902 66.693C11.902 66.778 11.902 66.863 11.902 66.948C11.902 69.4687 11.902 71.99 11.902 74.512C11.902 75.262 11.902 75.263 12.675 75.264L25.552 75.261Z" fill="#0FB595"/>
<path d="M122.071 70.667C122.071 80.7063 122.074 90.7453 122.08 100.784C122.109 102.521 121.519 104.211 120.417 105.553C119.891 106.183 119.252 106.709 118.533 107.105C114.728 109.305 110.92 111.503 107.11 113.699C103.539 115.761 99.9693 117.825 96.4 119.891C92.71 122.021 89.0193 124.149 85.328 126.275C82.5093 127.902 79.691 129.53 76.873 131.16C73.5397 133.086 70.2047 135.012 66.868 136.938C66.1643 137.388 65.4093 137.753 64.619 138.024C63.6805 138.317 62.6905 138.409 61.7141 138.293C60.7376 138.177 59.7967 137.856 58.953 137.351C54.257 134.646 49.5647 131.934 44.876 129.217C40.316 126.585 35.7547 123.955 31.192 121.327C27.62 119.265 24.05 117.201 20.482 115.134C16.8073 113.012 13.1313 110.892 9.454 108.775C8.524 108.239 7.592 107.707 6.664 107.166C5.77146 106.674 4.99628 105.995 4.392 105.174C3.78772 104.354 3.36874 103.412 3.164 102.414C3.05484 101.914 2.99985 101.404 3 100.893C3 80.747 3.00433 60.6004 3.013 40.453C2.97385 39.1973 3.28382 37.9554 3.90845 36.8654C4.53307 35.7754 5.44784 34.8801 6.551 34.279C10.537 31.947 14.551 29.658 18.551 27.349C21.7103 25.5257 24.868 23.701 28.024 21.875C32.3627 19.371 36.702 16.8674 41.042 14.364C44.614 12.302 48.1833 10.238 51.75 8.17202C54.214 6.74802 56.659 5.28902 59.15 3.91202C60.1147 3.35114 61.2039 3.03918 62.3192 3.00427C63.4346 2.96935 64.5411 3.21258 65.539 3.71202C66.957 4.37902 68.273 5.24502 69.631 6.02702C73.3223 8.15168 77.012 10.2797 80.7 12.411C83.622 14.0984 86.5433 15.7864 89.464 17.475C93.1693 19.6144 96.8743 21.7517 100.579 23.887C103.723 25.7023 106.866 27.518 110.009 29.334C112.871 30.988 115.75 32.614 118.588 34.308C119.678 34.9108 120.58 35.8032 121.194 36.8866C121.809 37.97 122.111 39.2023 122.069 40.447C122.072 50.5204 122.072 60.5937 122.071 70.667ZM23.264 38.615C23.4547 38.5338 23.6645 38.5085 23.869 38.542C26.153 38.542 28.436 38.537 30.72 38.55C34.348 38.57 37.977 38.497 41.603 38.737C43.473 38.861 45.337 39.021 47.197 39.249C50.1054 39.6073 52.9923 40.1227 55.845 40.793C61.0469 41.9993 66.0917 43.8033 70.879 46.169C72.6942 47.0741 74.4613 48.0728 76.173 49.161C79.272 51.1199 82.1707 53.3791 84.827 55.906C85.753 56.786 86.643 57.706 87.507 58.647C88.9856 60.2507 90.3632 61.9447 91.632 63.719C91.7519 63.9198 91.9246 64.0838 92.1312 64.1933C92.3378 64.3028 92.5705 64.3535 92.804 64.34C99.3487 64.3227 105.894 64.319 112.439 64.329C113.239 64.329 113.239 64.329 113.239 63.504V42.182C113.239 42.029 113.239 41.875 113.239 41.722C113.242 41.6365 113.221 41.5519 113.179 41.4774C113.137 41.4029 113.075 41.3416 113 41.3C112.868 41.221 112.739 41.14 112.606 41.063C110.436 39.811 108.266 38.5597 106.096 37.309C103.425 35.767 100.755 34.2234 98.085 32.678C94.3957 30.5494 90.7057 28.4207 87.015 26.292C84.093 24.606 81.1717 22.9177 78.251 21.227L67.892 15.245C66.2693 14.3084 64.647 13.3694 63.025 12.428C62.8979 12.3316 62.7442 12.2767 62.5847 12.2708C62.4253 12.2649 62.2679 12.3083 62.134 12.395C58.2313 14.665 54.322 16.925 50.406 19.175C46.5853 21.383 42.7647 23.5913 38.944 25.8C33.3953 29.0053 27.8473 32.2087 22.3 35.41C19.023 37.301 15.752 39.2 12.465 41.074C12.2763 41.1647 12.1202 41.3114 12.0182 41.4942C11.9162 41.677 11.8731 41.8868 11.895 42.095C11.911 45.623 11.903 49.151 11.904 52.679C11.904 53.465 11.904 53.466 12.694 53.466H34.216C34.336 53.466 34.455 53.466 34.574 53.466C34.796 53.461 34.848 53.353 34.741 53.166C34.568 52.872 34.389 52.582 34.208 52.293C33.0274 50.5196 31.7295 48.8272 30.323 47.227C28.0657 44.517 25.8097 41.8067 23.555 39.096C23.4113 38.9691 23.3097 38.8013 23.264 38.615V38.615ZM22.939 102.721C23.086 102.463 23.2644 102.224 23.47 102.009C24.7087 100.536 25.9497 99.0643 27.193 97.595C28.567 95.9683 29.942 94.3424 31.318 92.717C32.4385 91.4099 33.4631 90.0237 34.384 88.569C34.484 88.416 34.679 88.25 34.591 88.075C34.484 87.865 34.223 87.963 34.03 87.963C26.906 87.9583 19.7817 87.9583 12.657 87.963C11.901 87.963 11.9 87.963 11.9 88.738C11.9 92.249 11.91 95.76 11.887 99.271C11.8667 99.4874 11.9143 99.7047 12.0233 99.8927C12.1323 100.081 12.2972 100.23 12.495 100.32C14.704 101.57 16.895 102.852 19.095 104.12L33.886 112.652C38.5793 115.36 43.273 118.068 47.967 120.776C52.601 123.451 57.2343 126.127 61.867 128.805C62.706 129.29 62.477 129.243 63.367 128.731C67.194 126.531 71.01 124.315 74.832 122.108C80.41 118.887 85.989 115.668 91.569 112.451C95.259 110.321 98.948 108.19 102.636 106.058C105.971 104.132 109.303 102.2 112.648 100.292C112.839 100.208 113 100.067 113.107 99.8876C113.215 99.7084 113.264 99.5003 113.248 99.292C113.233 92.1 113.229 84.9073 113.238 77.714C113.238 77.036 113.238 77.036 112.553 77.032H100.9C98.156 77.032 95.412 77.032 92.668 77.032C92.5012 77.0131 92.3323 77.0404 92.1799 77.1109C92.0276 77.1815 91.8975 77.2926 91.804 77.432C90.4985 79.3066 89.0616 81.0861 87.504 82.757C85.2315 85.2306 82.7445 87.4981 80.072 89.533C74.8981 93.3926 69.1542 96.422 63.047 98.512C60.2932 99.4671 57.4844 100.256 54.636 100.874C52.288 101.388 49.9213 101.796 47.536 102.097C46.184 102.265 44.83 102.397 43.473 102.524C42.065 102.651 40.653 102.764 39.243 102.775C33.977 102.817 28.71 102.803 23.443 102.808C23.27 102.833 23.0937 102.802 22.939 102.721ZM28.439 100.154C28.6478 100.217 28.8666 100.24 29.084 100.222C31.062 100.222 33.039 100.222 35.016 100.222C37.299 100.222 39.58 100.188 41.86 100.038C43.51 99.9287 45.1543 99.776 46.793 99.58C49.7711 99.2225 52.7253 98.6882 55.64 97.98C61.1696 96.6726 66.5048 94.6485 71.51 91.959C73.6973 90.771 75.8021 89.437 77.81 87.966C80.4429 86.0489 82.8872 83.8855 85.11 81.505C86.246 80.279 87.34 79.021 88.371 77.705C89.0957 76.779 89.786 75.8273 90.442 74.85C90.5128 74.7145 90.6231 74.6038 90.7583 74.5323C90.8935 74.4609 91.0472 74.4322 91.199 74.45C91.351 74.465 91.506 74.45 91.659 74.45H112.267C112.42 74.45 112.574 74.45 112.727 74.45C113.185 74.437 113.238 74.398 113.239 73.955C113.244 71.773 113.244 69.5914 113.239 67.41C113.239 66.964 113.188 66.919 112.732 66.91C111.932 66.903 111.132 66.91 110.332 66.91C103.991 66.91 97.6507 66.91 91.31 66.91C91.1354 66.9312 90.9584 66.9027 90.7992 66.8279C90.64 66.7531 90.5051 66.635 90.41 66.487C89.0523 64.4631 87.5483 62.5413 85.91 60.737C83.9273 58.5305 81.7638 56.4934 79.442 54.647C75.832 51.8076 71.8888 49.4196 67.7 47.536C64.3279 46.0124 60.8357 44.7702 57.259 43.822C52.2969 42.5148 47.2205 41.6883 42.1 41.354C40.283 41.228 38.459 41.173 36.637 41.146C34.183 41.11 31.728 41.132 29.274 41.13C29.174 41.13 29.069 41.13 28.967 41.137C28.754 41.156 28.759 41.27 28.857 41.415C28.8866 41.4566 28.9183 41.4966 28.952 41.535C29.673 42.397 30.397 43.258 31.115 44.123C32.182 45.407 33.26 46.683 34.306 47.984C35.7639 49.8111 37.0368 51.7784 38.106 53.857C38.413 54.446 38.688 55.057 38.963 55.657C39.095 55.946 39.042 56.021 38.728 56.044C38.558 56.056 38.387 56.049 38.217 56.049H12.8C12.613 56.049 12.425 56.049 12.238 56.058C12.195 56.0538 12.1517 56.0589 12.1108 56.073C12.07 56.087 12.0327 56.1097 12.0015 56.1396C11.9702 56.1694 11.9458 56.2056 11.9298 56.2457C11.9139 56.2858 11.9068 56.3289 11.909 56.372C11.902 56.525 11.899 56.679 11.899 56.832C11.899 58.7074 11.899 60.5824 11.899 62.457C11.899 63.601 11.799 63.519 12.935 63.519H40.4C40.571 63.519 40.741 63.519 40.912 63.519C41.444 63.529 41.491 63.562 41.587 64.073C41.933 65.9499 42.1299 67.8511 42.176 69.759C42.203 70.729 42.17 71.699 42.111 72.67C42.0188 74.132 41.8466 75.5879 41.595 77.031C41.435 77.957 41.406 77.838 40.623 77.838C31.401 77.838 22.1793 77.838 12.958 77.838C12.788 77.838 12.617 77.838 12.447 77.838C11.961 77.85 11.92 77.89 11.905 78.362C11.905 78.498 11.905 78.635 11.905 78.771V84.447C11.905 85.434 11.85 85.376 12.81 85.376H38.27C39.009 85.376 39.027 85.397 38.713 86.067C37.778 88.0586 36.6602 89.9591 35.374 91.744C33.796 93.93 31.974 95.914 30.255 97.987C29.67 98.7 29.075 99.4 28.437 100.154H28.439ZM25.552 75.261H38.38C38.533 75.261 38.687 75.266 38.84 75.261C39.197 75.24 39.249 75.193 39.299 74.849C39.4782 73.4988 39.5757 72.139 39.591 70.777C39.5948 69.5173 39.5281 68.2583 39.391 67.006C39.318 66.173 39.308 66.174 38.471 66.174H12.76C12.641 66.174 12.521 66.174 12.402 66.174C11.969 66.193 11.918 66.247 11.902 66.693C11.902 66.778 11.902 66.863 11.902 66.948C11.902 69.4687 11.902 71.99 11.902 74.512C11.902 75.262 11.902 75.263 12.675 75.264L25.552 75.261Z" stroke="#FFFAF2" stroke-width="6" mask="url(#path-1-outside-1)"/>
<path d="M44.377 92.864H44.3951L44.4132 92.8627C44.4183 92.8623 44.4262 92.8619 44.4363 92.8613C44.483 92.8585 44.5775 92.8529 44.6631 92.8409C46.8524 92.5881 49.0364 92.2705 51.2074 91.8358C58.0504 90.5496 64.608 88.0493 70.5702 84.4532L70.572 84.4521C73.032 82.9541 75.3417 81.2222 77.469 79.2804C79.9814 76.9948 82.2389 74.4438 84.202 71.672L84.2037 71.6695C84.2198 71.6465 84.2358 71.6238 84.2514 71.6014C84.3642 71.4404 84.4642 71.2977 84.5344 71.1782C84.6145 71.0418 84.7043 70.8585 84.6999 70.6355C84.6954 70.4112 84.597 70.2353 84.5191 70.1136C84.4711 70.0387 84.4034 69.9448 84.3319 69.8457C84.2947 69.7942 84.2565 69.7412 84.2196 69.6889L84.2193 69.6885C82.0104 66.5624 79.4268 63.7188 76.5262 61.2211L76.5243 61.2195C73.5069 58.6479 70.1857 56.4559 66.635 54.6925C64.3107 53.5329 61.9092 52.5351 59.4475 51.7062L59.4474 51.7061C56.6801 50.7753 53.8549 50.0262 50.99 49.4635C48.9161 49.05 46.8269 48.7582 44.7404 48.5086L44.7404 48.5085L44.7366 48.5081C44.5707 48.4895 44.4034 48.4863 44.2368 48.4983L44.2368 48.4983L44.2321 48.4987C44.0864 48.5106 43.8769 48.5703 43.7349 48.7644C43.581 48.9747 43.5986 49.2137 43.6616 49.3822L43.6615 49.3822L43.6657 49.3927C43.723 49.5359 43.7886 49.6757 43.8622 49.8113C43.9322 49.9466 44.0021 50.0811 44.0718 50.215C44.3942 50.8352 44.7105 51.4436 45.0003 52.0692L45.0005 52.0697C46.0877 54.409 46.9711 56.8378 47.6408 59.3289C48.4942 62.5552 48.9867 65.8663 49.1093 69.2014L49.1094 69.2049C49.1584 70.3197 49.1224 71.4418 49.0597 72.5775L49.0596 72.5795C48.9728 74.2794 48.7955 75.9733 48.5283 77.6543C47.8615 81.717 46.6186 85.6639 44.8372 89.3757L44.8366 89.377C44.4653 90.1563 44.0811 90.9214 43.6593 91.6628L43.6593 91.6628C43.6027 91.7624 43.5428 91.8792 43.509 91.9992C43.4765 92.115 43.4416 92.3307 43.5736 92.5402C43.7011 92.7424 43.903 92.8075 44.0126 92.8321C44.1311 92.8587 44.2605 92.864 44.377 92.864ZM54.5578 87.3623C52.7666 87.8452 50.9538 88.2373 49.1237 88.5661L51.713 77.29C52.0489 75.0658 52.216 72.8194 52.213 70.57L52.713 70.5697C52.713 70.5696 52.713 70.5694 52.713 70.5693C52.7092 65.2377 51.8062 59.9448 50.0418 54.9136L50.0417 54.9132C49.8534 54.3776 49.6412 53.8421 49.4335 53.3177C49.3623 53.1381 49.2916 52.9597 49.2226 52.7831C49.6107 52.8523 49.998 52.9257 50.3846 53.0032L50.3846 53.0033L50.389 53.0041C55.7063 54.0215 60.8528 55.7865 65.6753 58.2467C68.7449 59.8383 71.6225 61.7757 74.2519 64.0211C76.4548 65.9306 78.4621 68.0546 80.2443 70.3617L80.2442 70.3617L80.2487 70.3673C80.3192 70.456 80.3826 70.539 80.4405 70.6242L80.4425 70.6271C80.4534 70.6429 80.4632 70.6572 80.4719 70.6702C80.462 70.6836 80.4509 70.6984 80.4383 70.7149L80.4362 70.7177C79.0806 72.5223 77.583 74.2156 75.9576 75.7815C73.1186 78.4754 69.939 80.786 66.5 82.6542C62.7198 84.6886 58.7121 86.2687 54.5607 87.3615L54.5578 87.3623ZM49.6483 87.2447C50.863 84.0552 51.7213 80.7411 52.2076 77.3629L49.181 87.067L49.6482 87.245C49.6482 87.2449 49.6483 87.2448 49.6483 87.2447Z" fill="#0FB595" stroke="#FFFAF2"/>
</svg>
