<svg xmlns="http://www.w3.org/2000/svg" width="119.08" height="135.34" viewBox="0 0 119.08 135.34">
  <g>
    <path d="M119.071,67.667q0,15.059.009,30.117a7.323,7.323,0,0,1-1.663,4.769,6.612,6.612,0,0,1-1.884,1.552q-5.708,3.3-11.423,6.594-5.356,3.093-10.71,6.192-5.535,3.195-11.072,6.384-4.228,2.44-8.455,4.885-5,2.889-10.005,5.778a10.486,10.486,0,0,1-2.249,1.086,6.978,6.978,0,0,1-5.666-.673q-7.044-4.058-14.077-8.134-6.84-3.948-13.684-7.89-5.358-3.093-10.71-6.193-5.512-3.183-11.028-6.359c-.93-.536-1.862-1.068-2.79-1.609a7.04,7.04,0,0,1-3.5-4.752A7.116,7.116,0,0,1,0,97.893q0-30.219.013-60.44a6.79,6.79,0,0,1,3.538-6.174c3.986-2.332,8-4.621,12-6.93q4.739-2.735,9.473-5.474,6.508-3.756,13.018-7.511Q43.4,8.271,48.75,5.172c2.464-1.424,4.909-2.883,7.4-4.26a6.724,6.724,0,0,1,6.389-.2c1.418.667,2.734,1.533,4.092,2.315Q72.168,6.214,77.7,9.411q4.383,2.531,8.764,5.064,5.558,3.209,11.115,6.412,4.716,2.723,9.43,5.447c2.862,1.654,5.741,3.28,8.579,4.974a6.753,6.753,0,0,1,3.481,6.139Q119.073,52.557,119.071,67.667ZM20.264,35.615a1.093,1.093,0,0,1,.605-.073c2.284,0,4.567-.005,6.851.008,3.628.02,7.257-.053,10.883.187,1.87.124,3.734.284,5.594.512a81.211,81.211,0,0,1,8.648,1.544,69.237,69.237,0,0,1,15.034,5.376,58.631,58.631,0,0,1,5.294,2.992,55.858,55.858,0,0,1,8.654,6.745c.926.88,1.816,1.8,2.68,2.741a52.725,52.725,0,0,1,4.125,5.072,1.279,1.279,0,0,0,1.172.621q9.817-.026,19.635-.011c.8,0,.8,0,.8-.825V39.182c0-.153,0-.307,0-.46A.465.465,0,0,0,110,38.3c-.132-.079-.261-.16-.394-.237q-3.255-1.878-6.51-3.754-4.006-2.313-8.011-4.631-5.534-3.193-11.07-6.386-4.383-2.529-8.764-5.065L64.892,12.245q-2.434-1.405-4.867-2.817a.776.776,0,0,0-.891-.033Q53.28,12.8,47.406,16.175,41.675,19.487,35.944,22.8,27.621,27.608,19.3,32.41c-3.277,1.891-6.548,3.79-9.835,5.664a1.015,1.015,0,0,0-.57,1.021c.016,3.528.008,7.056.009,10.584,0,.786,0,.787.79.787H31.216c.12,0,.239,0,.358,0,.222-.005.274-.113.167-.3-.173-.294-.352-.584-.533-.873a47.788,47.788,0,0,0-3.885-5.066q-3.386-4.065-6.768-8.131A.941.941,0,0,1,20.264,35.615Zm-.325,64.106a3.608,3.608,0,0,1,.531-.712q1.858-2.21,3.723-4.414,2.061-2.44,4.125-4.878a35.777,35.777,0,0,0,3.066-4.148c.1-.153.295-.319.207-.494-.107-.21-.368-.112-.561-.112q-10.686-.007-21.373,0c-.756,0-.757,0-.757.775,0,3.511.01,7.022-.013,10.533a1.045,1.045,0,0,0,.608,1.049c2.209,1.25,4.4,2.532,6.6,3.8l14.791,8.532q7.04,4.062,14.081,8.124,6.951,4.012,13.9,8.029c.839.485.61.438,1.5-.074,3.827-2.2,7.643-4.416,11.465-6.623q8.367-4.832,16.737-9.657,5.535-3.195,11.067-6.393c3.335-1.926,6.667-3.858,10.012-5.766a1.008,1.008,0,0,0,.6-1q-.023-10.788-.01-21.578c0-.678,0-.678-.685-.682H97.9c-2.744,0-5.488,0-8.232,0a.916.916,0,0,0-.864.4,48.245,48.245,0,0,1-4.3,5.325,56.9,56.9,0,0,1-7.432,6.776,62.1,62.1,0,0,1-17.025,8.979,72.783,72.783,0,0,1-8.411,2.362q-3.522.771-7.1,1.223c-1.352.168-2.706.3-4.063.427-1.408.127-2.82.24-4.23.251-5.266.042-10.533.028-15.8.033A.833.833,0,0,1,19.939,99.721Zm5.5-2.567a1.723,1.723,0,0,0,.645.068c1.978,0,3.955,0,5.932,0,2.283,0,4.564-.034,6.844-.184q2.475-.164,4.933-.458a75.664,75.664,0,0,0,8.847-1.6A65.243,65.243,0,0,0,68.51,88.959a55.419,55.419,0,0,0,6.3-3.993,51.309,51.309,0,0,0,7.3-6.461c1.136-1.226,2.23-2.484,3.261-3.8q1.087-1.389,2.071-2.855a.755.755,0,0,1,.757-.4c.152.015.307,0,.46,0h20.608c.153,0,.307,0,.46,0,.458-.013.511-.052.512-.495q.007-3.273,0-6.545c0-.446-.051-.491-.507-.5-.8-.007-1.6,0-2.4,0q-9.511,0-19.022,0a.936.936,0,0,1-.9-.423,49.941,49.941,0,0,0-4.5-5.75,53.285,53.285,0,0,0-6.468-6.09A56.42,56.42,0,0,0,64.7,44.536a67.143,67.143,0,0,0-10.441-3.714A79.953,79.953,0,0,0,39.1,38.354c-1.817-.126-3.641-.181-5.463-.208-2.454-.036-4.909-.014-7.363-.016-.1,0-.205,0-.307.007-.213.019-.208.133-.11.278a1.514,1.514,0,0,0,.095.12c.721.862,1.445,1.723,2.163,2.588,1.067,1.284,2.145,2.56,3.191,3.861a35.32,35.32,0,0,1,3.8,5.873c.307.589.582,1.2.857,1.8.132.289.079.364-.235.387-.17.012-.341.005-.511.005H9.8c-.187,0-.375,0-.562.009a.3.3,0,0,0-.329.314c-.007.153-.01.307-.01.46q0,2.813,0,5.625c0,1.144-.1,1.062,1.036,1.062H37.4c.171,0,.341,0,.512,0,.532.01.579.043.675.554a36.185,36.185,0,0,1,.589,5.686c.027.97-.006,1.94-.065,2.911a40.085,40.085,0,0,1-.516,4.361c-.16.926-.189.807-.972.807q-13.833,0-27.665,0c-.17,0-.341,0-.511,0-.486.012-.527.052-.542.524,0,.136,0,.273,0,.409v5.676c0,.987-.055.929.905.929H35.27c.739,0,.757.021.443.691a35.56,35.56,0,0,1-3.339,5.677c-1.578,2.186-3.4,4.17-5.119,6.243C26.67,95.7,26.075,96.4,25.437,97.154ZM22.552,72.261H35.38c.153,0,.307.005.46,0,.357-.021.409-.068.459-.412a33.83,33.83,0,0,0,.292-4.072,33.715,33.715,0,0,0-.2-3.771c-.073-.833-.083-.832-.92-.832H9.76c-.119,0-.239,0-.358,0-.433.019-.484.073-.5.519,0,.085,0,.17,0,.255q0,3.781,0,7.564c0,.75,0,.751.773.752Z" fill="#0fb595"/>
    <path d="M41.377,89.364c-.43,0-.49-.09-.283-.454.43-.756.82-1.533,1.194-2.318a43.8,43.8,0,0,0,3.734-11.858,48.4,48.4,0,0,0,.537-5.129c.063-1.142.1-2.283.05-3.422A45.589,45.589,0,0,0,45.124,56.2a45.362,45.362,0,0,0-2.67-7.341c-.359-.775-.759-1.526-1.15-2.282a3.458,3.458,0,0,1-.174-.37c-.046-.123.021-.2.143-.21a2.224,2.224,0,0,1,.408.008c2.081.249,4.156.539,6.212.949a66.567,66.567,0,0,1,8.395,2.226,55.96,55.96,0,0,1,7.124,2.96A48.015,48.015,0,0,1,73.2,58.6a46.36,46.36,0,0,1,7.611,8.377c.5.709.543.605-.017,1.406a46.54,46.54,0,0,1-6.662,7.528,44.255,44.255,0,0,1-6.82,5.114,57.866,57.866,0,0,1-19.2,7.32c-2.157.432-4.33.748-6.513,1C41.517,89.357,41.432,89.36,41.377,89.364ZM49.213,67.57a44.589,44.589,0,0,1-.5,6.72,45.8,45.8,0,0,1-2.532,9.777c-.23.605-.484,1.2-.713,1.806-.094.246-.035.306.23.28.067-.006.133-.027.2-.039,1.948-.342,3.88-.754,5.79-1.269a54.938,54.938,0,0,0,12.05-4.751,45.33,45.33,0,0,0,9.565-6.951,42.852,42.852,0,0,0,4.533-5.125c.234-.307.232-.365.018-.675-.068-.1-.14-.194-.214-.287a44.432,44.432,0,0,0-6.062-6.414,45.859,45.859,0,0,0-8.674-5.84,57.86,57.86,0,0,0-15.421-5.289q-.852-.171-1.709-.315c-.23-.038-.278.033-.213.256.029.1.073.191.109.287.3.779.623,1.55.9,2.338A46.909,46.909,0,0,1,49.213,67.57Z" fill="#0fb595"/>
  </g>
</svg>
